<svg xmlns="http://www.w3.org/2000/svg" xmlns:xlink="http://www.w3.org/1999/xlink" viewBox="0 0 540 405">
  <defs>
    <style>
      .cls-1{fill:#253858;}.cls-2{isolation:isolate;}.cls-3{fill:#e7e7ec;}.cls-4{fill:#fff;}.cls-5{fill:#b78279;}.cls-6{fill:#00abed;}.cls-7{opacity:0.2;}.cls-8{opacity:0.22;}.cls-9{fill:#ffbe9d;}.cls-10{fill:#bf6700;}.cls-11{fill:#041c39;}.cls-12,.cls-24{mix-blend-mode:multiply;}.cls-13{fill:#0a1e42;}.cls-14{opacity:0.75;}.cls-15{fill:#53322c;}.cls-16{fill:#79f2c1;}.cls-17{fill:#0151cc;}.cls-18{opacity:0.33;}.cls-19{fill:#f69110;}.cls-20{opacity:0.16;}.cls-21{opacity:0.26;}.cls-22,.cls-28{opacity:0.53;}.cls-23{opacity:0.19;}.cls-24{opacity:0.45;}.cls-25{clip-path:url(#clip-path);}.cls-26{fill:#e0e0e0;}.cls-27{fill:#83898c;}.cls-29{opacity:0.25;}
    </style>
    <clipPath id="clip-path">
      <polygon class="cls-1" points="485.78 385.01 459.73 385.01 457.32 365.42 487.98 365.42 485.78 385.01"/>
    </clipPath>
  </defs>
  <g class="cls-2">
    <g id="Layer_2" data-name="Layer 2">
      <path class="cls-3"
            d="M316.83,384.17h-11a4.62,4.62,0,0,0-.08,1,5.5,5.5,0,0,0,1.7,3.91,5.3,5.3,0,0,0,4,1.56,5.57,5.57,0,0,0,5.47-5.66A5.29,5.29,0,0,0,316.83,384.17Zm16.45,0H322.22a5.37,5.37,0,0,0,0,.7,5.57,5.57,0,1,0,11.14-.19A2.92,2.92,0,0,0,333.28,384.17Zm-204.87,0q-1.06.87-2.13,1.65l-1-.57-1.8-1.1h0l-.13-.08q-7.77-4.8-15-10.23l-.49-.36c-1.17-.88-2.31-1.75-3.46-2.66h0l-.45-.36q-4-3.12-7.77-6.43a203.32,203.32,0,0,1-19.27-19.11c-.63-.7-1.25-1.41-1.86-2.12l-.38-.45c-.57-.66-1.13-1.33-1.68-2-1.58-1.89-3.11-3.8-4.6-5.75-.73-.93-1.42-1.85-2.12-2.79v0c-.22-.28-.42-.55-.62-.83a0,0,0,0,1,0,0c-.88-1.19-1.75-2.38-2.59-3.59v0c-21.36-30.46-33.77-66.52-33.77-104.41,0-61,45.84-120.63,106.91-159.26A300.27,300.27,0,0,1,183.72,39.2c29.83-12.1,61.19-19,91.34-19,79.42,0,147.7,59.23,182,130a252.21,252.21,0,0,1,10.56,25.2c8.37,23.45,12.93,47.52,12.93,70.63a119.71,119.71,0,0,1-3.35,28.21,123.22,123.22,0,0,1-5.55,17.17q-1.64,4-3.56,8-1.64,3.38-3.49,6.66c-.13.26-.28.51-.42.76q-1.75,3.1-3.69,6.12a168.52,168.52,0,0,1-32,36.54q-2,1.78-4.16,3.51a236.6,236.6,0,0,1-35.93,24.21c-.6.34-1.21.67-1.82,1q-2.7,1.47-5.45,2.88c-2,1.05-4.09,2.08-6.17,3.08H334.29a4,4,0,0,1,0,.49v.12a6.57,6.57,0,0,1-6.45,6.57h-.12a6.59,6.59,0,0,1-6.57-6.46,5.15,5.15,0,0,1,0-.56,3.86,3.86,0,0,0-.79.56,2.27,2.27,0,0,0-.79,1.86.5.5,0,0,1-.48.51h0a.5.5,0,0,1-.5-.48,3.25,3.25,0,0,1,1.09-2.61h-1.87a6.46,6.46,0,0,1,.07.78v.11a6.57,6.57,0,0,1-6.46,6.57h-.11a6.58,6.58,0,0,1-6.57-6.46,4.86,4.86,0,0,1,.07-1H292.7a4.3,4.3,0,0,0-1.09.72,2.27,2.27,0,0,0-.79,1.86.5.5,0,0,1-.48.51h0a.5.5,0,0,1-.5-.48,3.25,3.25,0,0,1,1.09-2.61H272.68l-2,6.17a4.08,4.08,0,0,1-4,2.66h-111a2.62,2.62,0,0,1-2.37-2.81,2.19,2.19,0,0,1,2-2.4H186a3.48,3.48,0,0,0,3.3-2.39l.4-1.23H174.58Z"/>
      <polygon class="cls-1" points="422.33 314.95 431.41 315.52 427.58 339.78 409.24 330 415.68 314.95 422.33 314.95"/>
      <path class="cls-4"
            d="M353.44,353.42h0c-1.65,0-3.33,0-5,0h-2a1,1,0,0,0,0,2h2c1.7,0,3.38,0,5,0a1,1,0,0,0,0-2Zm-14-.07q-3.45-.08-7-.2a1,1,0,0,0-1,1,1,1,0,0,0,1,1c2.38.08,4.72.15,7,.2h0a1,1,0,0,0,0-2Zm28-.38c-2.3.12-4.65.22-7,.29a1,1,0,0,0,0,2h0c2.35-.07,4.72-.17,7-.29a1,1,0,0,0-.1-2Zm-42-.13q-3.54-.18-7-.42a1,1,0,0,0-.14,2q3.45.24,7,.42h.05a1,1,0,0,0,.05-2Zm56-.89c-2.27.22-4.61.42-7,.59a1,1,0,0,0,.07,2h.08c2.37-.18,4.73-.38,7-.6a1,1,0,1,0-.2-2Zm-69.93-.08c-2.33-.2-4.68-.43-7-.67a1,1,0,0,0-1.11.88,1,1,0,0,0,.89,1.1c2.3.25,4.66.48,7,.69h.09a1,1,0,0,0,.09-2Zm83.81-1.63c-2.27.34-4.6.66-6.92.94a1,1,0,0,0,.12,2h.12c2.34-.29,4.69-.61,7-1a1,1,0,1,0-.3-2Zm-97.72.13c-2.32-.29-4.65-.62-6.92-1a1,1,0,0,0-.31,2c2.3.35,4.64.68,7,1h.13a1,1,0,0,0,1-.88A1,1,0,0,0,297.54,350.37Zm112.65-1.9a1,1,0,0,0-1.19-.76c-2.22.48-4.52,1-6.85,1.37a1,1,0,0,0,.18,2l.19,0c2.34-.43,4.67-.9,6.91-1.39A1,1,0,0,0,410.19,348.47Zm-125.85.18a1,1,0,0,0-.42-.33.66.66,0,0,0-.2-.06l-.3-.05c-2.23-.4-4.43-.82-6.56-1.26a1,1,0,0,0-1.18.78,1,1,0,0,0,.77,1.18c2.06.42,4.19.84,6.34,1.22l.51.09h.07l.17,0a.66.66,0,0,0,.28-.05,1,1,0,0,0,.71-.78A1,1,0,0,0,284.34,348.65Zm139.42-3.76a1,1,0,0,0-1.25-.67c-2.17.65-4.43,1.29-6.72,1.87a1,1,0,0,0,.5,1.94c2.31-.59,4.6-1.23,6.8-1.9A1,1,0,0,0,423.76,344.89ZM270,345.45c-2.27-.54-4.55-1.11-6.77-1.71a1,1,0,0,0-.51,1.94c2.23.6,4.53,1.17,6.83,1.72l.23,0a1,1,0,0,0,.22-2ZM437,340.12a1,1,0,0,0-1.3-.55c-2.1.86-4.29,1.7-6.51,2.48a1,1,0,0,0-.62.63h0a.89.89,0,0,0,0,.58.13.13,0,0,0,0,.06,1,1,0,0,0,.94.67,1,1,0,0,0,.33-.06c2.25-.8,4.48-1.64,6.61-2.52A1,1,0,0,0,437,340.12Zm-180.4,1.7c-2.25-.68-4.48-1.41-6.63-2.15a1,1,0,0,0-.65,1.89c2.17.75,4.43,1.48,6.7,2.18a1,1,0,1,0,.58-1.92Zm-13.18-4.54c-1.5-.58-3-1.19-4.46-1.81l-1.17-.5-.81-.35a1,1,0,0,0-1.22.35,1,1,0,0,0-.1.17.78.78,0,0,0-.07.33,1,1,0,0,0,.59,1c2.12.92,4.31,1.83,6.52,2.68a.92.92,0,0,0,.36.07,1,1,0,0,0,.36-1.93ZM449.55,334a1,1,0,0,0-1.37-.38c-2,1.1-4.06,2.18-6.17,3.18a1,1,0,0,0,.43,1.91,1.12,1.12,0,0,0,.43-.1c2.15-1,4.26-2.12,6.29-3.25A1,1,0,0,0,449.55,334ZM230.61,331.7c-2.09-1-4.17-2.1-6.18-3.21a1,1,0,1,0-1,1.76c2,1.12,4.15,2.21,6.26,3.24a1,1,0,0,0,.44.11,1,1,0,0,0,.44-1.9Zm230.6-5.52a1,1,0,0,0-1.41-.19c-1.8,1.38-3.7,2.72-5.66,4a1,1,0,0,0,.54,1.83,1,1,0,0,0,.55-.16c2-1.3,3.95-2.67,5.79-4.08A1,1,0,0,0,461.21,326.18ZM218.41,325c-2-1.22-3.95-2.49-5.84-3.79a1,1,0,0,0-1.13,1.65c1.92,1.32,3.91,2.61,5.92,3.84a1,1,0,0,0,.52.15,1,1,0,0,0,.86-.48A1,1,0,0,0,218.41,325Zm253.08-8.34a1,1,0,0,0-1.42,0c-.19.21-.39.42-.59.62h0c-.3.31-.59.62-.89.92-1.11,1.13-2.27,2.24-3.45,3.31a1,1,0,0,0,.67,1.74,1,1,0,0,0,.67-.26c.95-.85,1.88-1.73,2.78-2.63l.92-.93c.46-.47.92-.94,1.36-1.42A1,1,0,0,0,471.49,316.66Zm-264.57.49c-1.84-1.4-3.66-2.86-5.44-4.35a1,1,0,0,0-1.28,1.53c1.79,1.51,3.65,3,5.51,4.41a1,1,0,0,0,.61.2,1,1,0,0,0,.79-.39A1,1,0,0,0,206.92,317.15Zm273-11.69a1,1,0,0,0-1.38.31c-.53.85-1.09,1.69-1.67,2.52-.38.56-.78,1.1-1.19,1.65v0c-.29.42-.6.83-.91,1.23v0c-.06.09-.12.15-.18.23a1,1,0,0,0,0,1.19.76.76,0,0,0,.19.21,1,1,0,0,0,.61.21h0a1,1,0,0,0,.79-.39c1.14-1.48,2.24-3,3.26-4.56h0c.28-.42.55-.83.81-1.25A1,1,0,0,0,479.9,305.46Zm-283.64,2.73c-.54-.5-1.09-1-1.63-1.55-.33-.3-.67-.62-1-.95-.8-.77-1.59-1.56-2.38-2.35a1,1,0,0,0-1.41,0l-.05.06a1,1,0,0,0,0,1.35c1,1,2,2,3,2.92.7.67,1.41,1.34,2.11,2l0,0a.92.92,0,0,0,.27.16,1,1,0,0,0,.33.07h0a1,1,0,0,0,.74-.32,1,1,0,0,0,.21-.36A1,1,0,0,0,196.26,308.19Zm289.82-15.31a1,1,0,0,0-1.3.56c-.85,2.14-1.8,4.27-2.84,6.31a1,1,0,0,0,.44,1.35,1.06,1.06,0,0,0,.45.11,1,1,0,0,0,.89-.55c1.07-2.1,2-4.28,2.92-6.48A1,1,0,0,0,486.08,292.88Zm-299.64,5.41c-.47-.51-.94-1-1.41-1.57-.8-.88-1.61-1.79-2.41-2.73l-.81-.93a1,1,0,1,0-1.52,1.3c.72.84,1.44,1.67,2.16,2.47h0c.32.38.64.74,1,1.1l.07.09,1.47,1.61a1,1,0,0,0,.73.33,1,1,0,0,0,.68-.27.94.94,0,0,0,.32-.69A1,1,0,0,0,186.44,298.29Zm-9.12-10.59c-1.5-1.84-3-3.66-4.4-5.46a1,1,0,0,0-1.4-.16.88.88,0,0,0-.28.36,1,1,0,0,0,.12,1l0,0h0q2.13,2.68,4.36,5.42a1,1,0,0,0,1.41.14A1,1,0,0,0,177.32,287.7Zm312.59-8.32a1,1,0,0,0-1.18.78c-.11.51-.22,1-.34,1.49,0,0,0,0,0,0s0,0,0,0c-.39,1.75-.85,3.49-1.35,5.17a1,1,0,0,0,.68,1.24.9.9,0,0,0,.28,0,.85.85,0,0,0,.23,0,1,1,0,0,0,.73-.68c.66-2.24,1.24-4.55,1.73-6.89A1,1,0,0,0,489.91,279.38Zm-321.35-2.64q-2.2-2.81-4.39-5.49a1,1,0,0,0-.78-.37,1,1,0,0,0-.63.22,1,1,0,0,0-.36.67h0a1,1,0,0,0,.22.73Q164.8,275.2,167,278a1,1,0,0,0,.78.38,1,1,0,0,0,.62-.22A1,1,0,0,0,168.56,276.74Zm323-11.3a1,1,0,0,0-1.05.94c-.13,2.34-.34,4.67-.63,6.93a1,1,0,0,0,.87,1.12h.13a1,1,0,0,0,1-.88c.29-2.3.51-4.68.64-7.06A1,1,0,0,0,491.55,265.44Zm-331.9.4c-1.66-1.93-3.2-3.65-4.72-5.25l-.13-.12a1,1,0,0,0-.4-.17.87.87,0,0,0-.55.05,1,1,0,0,0-.34.2,1,1,0,0,0,0,1.42l.08.08.47.51.52.56c1.15,1.24,2.34,2.57,3.59,4a1,1,0,1,0,1.51-1.3Zm332.71-13.51a1,1,0,0,0-1.07-.93,1,1,0,0,0-.92,1.07c.16,2.33.26,4.67.28,7a1,1,0,0,0,1,1h0a1,1,0,0,0,1-1C492.63,257.08,492.53,254.7,492.36,252.33Zm-342.45,3.29c-1.79-1.66-3.61-3.2-5.4-4.59a1,1,0,0,0-1.23,1.58c1.75,1.36,3.52,2.86,5.27,4.47a1,1,0,0,0,.68.27,1,1,0,0,0,.68-1.73ZM30.43,251.1a1,1,0,0,0-1.27-.64c-2.18.72-4.4,1.46-6.67,2.24a1,1,0,0,0,.33,2,1,1,0,0,0,.32-.06c2.26-.77,4.47-1.51,6.65-2.23A1,1,0,0,0,30.43,251.1ZM43.85,247a1,1,0,0,0-1.24-.68q-3.3,1-6.74,2a1,1,0,0,0,.3,2,1,1,0,0,0,.29-.05c2.29-.71,4.52-1.38,6.71-2A1,1,0,0,0,43.85,247Zm94.85,0a65,65,0,0,0-6.21-3.43,1,1,0,0,0-.87,1.8,63.14,63.14,0,0,1,6,3.32.93.93,0,0,0,.53.15,1,1,0,0,0,.53-1.84Zm351.88-8.69a1,1,0,0,0-1.16-.8,1,1,0,0,0-.81,1.16c.42,2.31.78,4.63,1.07,6.89a1,1,0,0,0,1,.88h.12a1,1,0,0,0,.87-1.12C491.37,243,491,240.62,490.58,238.28ZM57.42,243.35a1,1,0,0,0-1.21-.73c-2.21.55-4.5,1.14-6.82,1.77a1,1,0,0,0,.26,2,1.09,1.09,0,0,0,.26,0c2.3-.62,4.58-1.21,6.78-1.76A1,1,0,0,0,57.42,243.35ZM70,239.61c-2.24.43-4.56.9-6.91,1.41a1,1,0,0,0,.21,2l.22,0c2.32-.51,4.63-1,6.85-1.4a1,1,0,0,0-.37-2Zm56,1.22a66.11,66.11,0,0,0-6.8-2,1,1,0,0,0-.46,1.95,63,63,0,0,1,6.6,1.93,1,1,0,0,0,.33.05,1,1,0,0,0,.33-1.94ZM84,237.5c-2.27.25-4.63.56-7,.93a1,1,0,0,0,.15,2h.15c2.35-.36,4.68-.66,6.92-.91a1,1,0,0,0-.22-2Zm28.24,0c-2.26-.32-4.63-.56-7-.71a1,1,0,0,0-1.06.93,1,1,0,0,0,.94,1.06c2.35.15,4.67.38,6.88.7h.14a1,1,0,0,0,.14-2Zm-14.12-.9c-2.28,0-4.66.1-7.08.25a1,1,0,0,0,.06,2h.07c2.38-.15,4.72-.23,7-.24a1,1,0,0,0,0-2Zm391.09-5.28c-.53-2.27-1.12-4.58-1.76-6.85a1,1,0,0,0-1.93.54c.63,2.24,1.22,4.52,1.74,6.76a1,1,0,0,0,1,.78l.23,0A1,1,0,0,0,489.16,231.35Zm-3.83-13.62c-.77-2.3-1.57-4.54-2.4-6.66a1,1,0,0,0-1.87.73c.82,2.09,1.62,4.29,2.37,6.56a1,1,0,0,0,.95.69,1.12,1.12,0,0,0,.31-.05A1,1,0,0,0,485.33,217.73Zm-249.25-6.91h-.62c-2.15,0-4.28-.07-6.34-.18a1,1,0,0,0-.11,2c2.12.12,4.33.18,6.56.19h.51a1,1,0,0,0,0-2ZM250,210.1c-1.68.17-3.36.3-5,.41l-1.93.12a1.08,1.08,0,0,0-.41.11,1,1,0,0,0,.46,1.89h.25c2.13-.12,4.32-.29,6.5-.5l.35,0a1,1,0,0,0-.2-2Zm-27.21.22a1,1,0,0,0-.6-.29c-2.34-.29-4.65-.66-6.86-1.09a1,1,0,1,0-.39,2c2.27.44,4.62.82,7,1.11h.12a1,1,0,0,0,.85-.49.87.87,0,0,0,.14-.39A1,1,0,0,0,222.79,210.32Zm41-2.18-.37.07-2.35.4c-1.41.24-2.81.46-4.18.65a.86.86,0,0,0-.51.23,1,1,0,0,0-.34.9,1,1,0,0,0,.34.62,1,1,0,0,0,.65.24h.14c1.28-.19,2.58-.38,3.9-.6l2.36-.4.72-.13A1,1,0,0,0,265,209,1,1,0,0,0,263.84,208.14Zm-55.26-.82c-2.26-.63-4.47-1.37-6.58-2.18a1,1,0,0,0-1.29.57,1,1,0,0,0,.57,1.3c2.17.83,4.44,1.58,6.75,2.24a1.26,1.26,0,0,0,.27,0,1,1,0,0,0,.28-2Zm70.16-1.39a1,1,0,0,0-1.22-.73l-.55.13c-1.83.46-3.66.89-5.47,1.28l-.79.18a1,1,0,0,0-.77,1.18,1,1,0,0,0,1,.79h0a.78.78,0,0,0,.21,0l2.11-.47,2.85-.66,1.92-.46a1.11,1.11,0,0,0,.27-.12A1,1,0,0,0,278.74,205.93Zm201.2-8.28a1,1,0,1,0-2,.36c.4,2.19.73,4.5,1,6.87a1,1,0,0,0,1,.9h.11a1,1,0,0,0,.89-1.1C480.69,202.26,480.35,199.89,479.94,197.65Zm-187.67,4.46a1,1,0,0,0-1.25-.66c-1.92.59-3.83,1.15-5.68,1.67l-1,.3a1,1,0,0,0,.26,2,1.24,1.24,0,0,0,.27,0l.55-.16c2-.57,4.11-1.18,6.22-1.83A1,1,0,0,0,292.27,202.11Zm-96.69.33c-2.15-1-4.26-2-6.28-3a1,1,0,0,0-.91,1.78c2.05,1.06,4.19,2.09,6.36,3.07a1,1,0,0,0,.41.09,1,1,0,0,0,.42-1.91Zm110-4.84a1,1,0,0,0-1.28-.6c-2.22.8-4.44,1.58-6.62,2.3a1.11,1.11,0,0,0-.39.24,1,1,0,0,0,.71,1.71.84.84,0,0,0,.31-.05l.41-.14c2.06-.69,4.17-1.42,6.26-2.18A1,1,0,0,0,305.59,197.6ZM183.22,196c-2-1.21-4-2.47-5.86-3.75a1,1,0,0,0-1.14,1.65c1.91,1.31,3.92,2.59,6,3.81a1,1,0,0,0,.51.14,1,1,0,0,0,.52-1.85Zm135.47-3.55a1,1,0,0,0-1.3-.54c-2.16.88-4.35,1.76-6.52,2.6a1,1,0,0,0,.36,1.93.89.89,0,0,0,.36-.07c2.19-.84,4.39-1.72,6.56-2.61A1,1,0,0,0,318.69,192.49Zm159.64-1.77A61.09,61.09,0,0,0,476,184a1,1,0,0,0-1.85.76,58,58,0,0,1,2.26,6.52,1,1,0,0,0,1,.73,1.26,1.26,0,0,0,.27,0A1,1,0,0,0,478.33,190.72Zm-146.76-3.89a1,1,0,0,0-1.33-.49c-2.08,1-4.24,1.93-6.4,2.87a1,1,0,0,0,.4,1.92.93.93,0,0,0,.4-.09c2.18-.94,4.34-1.92,6.44-2.89A1,1,0,0,0,331.57,186.83Zm-159.79,1.32c-1.82-1.47-3.59-3-5.23-4.56a1,1,0,0,0-1.42,0,1,1,0,0,0,0,1.41c1.69,1.6,3.49,3.17,5.36,4.67a1,1,0,0,0,.62.22,1,1,0,0,0,.63-1.78Zm172.4-7.58a1,1,0,0,0-1.35-.42c-1.3.69-3.45,1.8-6.26,3.17a1,1,0,0,0-.45,1.34,1,1,0,0,0,1.33.46c2.84-1.39,5-2.51,6.31-3.2A1,1,0,0,0,344.18,180.57Zm-182.45-2c-1.55-1.75-3-3.56-4.33-5.4a1,1,0,0,0-1.62,1.17c1.36,1.89,2.86,3.76,4.45,5.56a1,1,0,0,0,.75.33,1,1,0,0,0,.66-.25A1,1,0,0,0,161.73,178.61Zm311.07-1c-.45-.76-.92-1.5-1.42-2.23a42.7,42.7,0,0,0-2.7-3.63,1,1,0,0,0-1.41-.13,1,1,0,0,0-.13,1.41c.65.77,1.27,1.58,1.87,2.43.73,1,1.42,2.08,2.07,3.17a1,1,0,0,0,.86.49,1,1,0,0,0,.51-.14A1,1,0,0,0,472.8,177.58Zm-115.95-3.2a1,1,0,0,0-1.32-.5c-1.4.64-2.78,1.28-4.12,1.92l-1.54.73h0l-.73.36a1,1,0,0,0-.46,1.34,1,1,0,0,0,.9.56,1,1,0,0,0,.44-.1l2.29-1.11c.28-.13.57-.26.86-.41l3.19-1.47A1,1,0,0,0,356.85,174.38Zm13-5.43a1,1,0,0,0-1.29-.57c-2.19.86-4.39,1.75-6.54,2.66a1,1,0,0,0,.39,1.93,1.09,1.09,0,0,0,.39-.08c2.14-.91,4.32-1.8,6.49-2.65A1,1,0,0,0,369.82,169Zm-216.17-1.54a61.58,61.58,0,0,1-3.11-6.18,1,1,0,0,0-1.83.8,63.2,63.2,0,0,0,3.2,6.37,1,1,0,0,0,1.37.37A1,1,0,0,0,153.65,167.41Zm310-.8a42.3,42.3,0,0,0-5.85-4.16,1,1,0,1,0-1,1.72,40.4,40.4,0,0,1,5.58,4,1,1,0,0,0,.64.24,1,1,0,0,0,.65-1.76Zm-80.56-2.37a1,1,0,0,0-1.26-.64h0l-2.84,1c-1.27.43-2.54.88-3.82,1.34a1,1,0,0,0,.33,1.94,1,1,0,0,0,.34-.05c2-.72,4-1.4,5.87-2l.43-.14.32-.11A1,1,0,0,0,383.07,164.24Zm13.52-3.87a1,1,0,0,0-1.21-.73c-2.24.57-4.53,1.2-6.82,1.86l0,0a1,1,0,0,0-.64,1.23.37.37,0,0,0,.05.11,1,1,0,0,0,.91.6.9.9,0,0,0,.28,0c2.26-.66,4.53-1.28,6.75-1.84A1,1,0,0,0,396.59,160.37Zm54.75-1.06c-1.26-.5-2.57-1-3.92-1.37-.95-.29-1.92-.56-2.9-.8a1,1,0,1,0-.48,1.94c1,.25,2,.52,3,.83,1.24.37,2.44.8,3.6,1.25a1,1,0,0,0,1.3-.56A1,1,0,0,0,451.34,159.31Zm-42.12-2.56c-2.26.37-4.6.8-7,1.3a1,1,0,0,0-.77,1.18,1,1,0,0,0,1,.8l.21,0c2.32-.49,4.63-.92,6.86-1.28a1,1,0,1,0-.32-2Zm28.29-.92c-2.27-.29-4.66-.48-7.1-.57a1,1,0,0,0-1,1,1,1,0,0,0,1,1c2.38.08,4.7.27,6.91.56h.13a1,1,0,0,0,.13-2Zm-14.2-.55c-2.29.1-4.67.27-7.07.53a1,1,0,0,0,.11,2h.1c2.36-.25,4.7-.43,6.94-.52a1,1,0,0,0,1-1A1,1,0,0,0,423.31,155.28Zm-275.14-.52a58.5,58.5,0,0,1-1.59-6.72.19.19,0,0,0,0-.07,1,1,0,0,0-1.94,0,1,1,0,0,0,0,.42,60.23,60.23,0,0,0,1.64,6.94,1,1,0,0,0,1.25.67A1,1,0,0,0,148.17,154.76Zm-2.27-20.47a1,1,0,0,0-.55-1,1.13,1.13,0,0,0-.37-.1,1,1,0,0,0-1.07.92c0,.24,0,.48,0,.72-.08,1.18-.11,2.38-.11,3.58,0,.95,0,1.91.07,2.85a1,1,0,0,0,1,1h.06a1,1,0,0,0,.94-1.05c0-.91-.06-1.83-.06-2.75C145.75,137.05,145.8,135.66,145.9,134.29Zm2.18-14.73a1,1,0,0,0-1.27.61,53.69,53.69,0,0,0-1.91,6.88v0a1,1,0,0,0,.45,1,1.22,1.22,0,0,0,.33.14l.2,0a1,1,0,0,0,1-.8,51.42,51.42,0,0,1,1.84-6.63A1,1,0,0,0,148.08,119.56ZM155.72,108l-.16-.15a1,1,0,0,0-1.25.07,22.61,22.61,0,0,0-4.62,5.64,1,1,0,0,0,.38,1.37,1,1,0,0,0,.49.13,1,1,0,0,0,.87-.51,20.44,20.44,0,0,1,4.21-5.14A1,1,0,0,0,155.72,108Zm12.44-6.34a1,1,0,0,0-1.27-.62,44.85,44.85,0,0,0-6.6,2.8,1,1,0,0,0,.47,1.88,1,1,0,0,0,.46-.11,44,44,0,0,1,6.31-2.68A1,1,0,0,0,168.16,101.68Zm12.58-3.82c-2.47.37-4.81.8-7,1.29a1,1,0,0,0,.22,2,.83.83,0,0,0,.22,0c2.12-.48,4.42-.9,6.84-1.26a1,1,0,0,0,.84-1.14A1,1,0,0,0,180.74,97.86Zm14.07-1.42c-2.51.15-4.82.34-7,.56a1,1,0,0,0,.1,2h.1c2.19-.22,4.47-.4,7-.55a1,1,0,0,0-.13-2Zm14.1-.51c-2.36,0-4.71.09-7,.18a1,1,0,0,0,0,2h0c2.32-.08,4.67-.13,7-.17a1,1,0,1,0,0-2ZM223,95.82l-7,0a1,1,0,0,0-1,1,1,1,0,0,0,1,1h0l7,0a1,1,0,0,0,0-2Zm14.06-.07h0c-2.3,0-4.65,0-7,.06a1,1,0,0,0,0,2h0q3.57,0,7-.06a1,1,0,0,0,0-2Zm14-.5c-2.15.15-4.44.26-7,.34a1,1,0,0,0-1,1,1,1,0,0,0,1,1h0c2.57-.08,4.88-.19,7.06-.34a1,1,0,0,0,.93-1.06A1,1,0,0,0,251,95.25ZM265,93.87c-2.29.29-4.63.55-7,.79a1,1,0,0,0,.1,2h.1c2.35-.24,4.7-.5,7-.79a1,1,0,1,0-.25-2Zm13.83-2.13c-2.23.41-4.55.8-6.9,1.16a1,1,0,0,0-.83,1.14,1,1,0,0,0,1,.85h.16c2.36-.36,4.71-.76,7-1.18a1,1,0,1,0-.37-2Zm14.86-2.35a1,1,0,0,0-1.22-.7l-.46.12c-2,.53-4.13,1-6.33,1.53a1,1,0,0,0,.22,2l.22,0c2.39-.54,4.7-1.1,6.87-1.68a1,1,0,0,0,.54-.37A1,1,0,0,0,293.66,89.39Zm13.25-4.65a1,1,0,0,0-.31-.4,1,1,0,0,0-1-.12l-.19.08c-.74.33-1.52.65-2.34,1-1.24.48-2.57,1-4,1.42a.81.81,0,0,0-.3.17l0,0a1,1,0,0,0-.29,1.06,1,1,0,0,0,.95.69,1.19,1.19,0,0,0,.32,0c2.43-.81,4.67-1.67,6.65-2.54a1,1,0,0,0,.59-1A.81.81,0,0,0,306.91,84.74Zm10.67-8.68a1,1,0,0,0-1.35.42,10.48,10.48,0,0,1-2.44,2.91q-.44.38-.93.75c-.38.3-.79.58-1.22.87a1,1,0,1,0,1.11,1.67l.11-.08a18.65,18.65,0,0,0,1.52-1.11,15.78,15.78,0,0,0,1.69-1.5c.2-.2.38-.4.55-.6a10.14,10.14,0,0,0,1.38-2A1,1,0,0,0,317.58,76.06Zm-.08-6.26a24.94,24.94,0,0,0-4.76-5.53.74.74,0,0,0-.29-.18h0a1,1,0,0,0-.48-.06h0a1,1,0,0,0-.59.31,1,1,0,0,0,.07,1.42,22.91,22.91,0,0,1,4.38,5.07,1,1,0,0,0,.86.49.94.94,0,0,0,.51-.14A1,1,0,0,0,317.5,69.8Zm-10.39-9.95c-1.87-1.28-3.91-2.54-6.06-3.74a1,1,0,0,0-1,1.75c2.1,1.17,4.09,2.39,5.9,3.64a1,1,0,0,0,.57.18,1,1,0,0,0,.57-1.83ZM184.54,56.8A50.86,50.86,0,0,1,177.7,56a1,1,0,1,0-.37,2,53.63,53.63,0,0,0,7.11.79h.05a1,1,0,0,0,0-2Zm13.87-.58c-2.41.27-4.74.46-6.94.56a1,1,0,0,0-.95,1,1,1,0,0,0,1,1h.05c2.24-.1,4.62-.29,7.07-.57a1,1,0,0,0,.88-1.11A1,1,0,0,0,198.41,56.22Zm15-1.49a1,1,0,0,0-1.19-.78c-2.34.49-4.65.93-6.86,1.3a1,1,0,0,0,.16,2h.16c2.24-.37,4.58-.81,7-1.31A1,1,0,0,0,213.37,54.73Zm-42.2-.58a19.33,19.33,0,0,1-5.62-3.54,1,1,0,1,0-1.36,1.46,21.32,21.32,0,0,0,6.2,3.92,1.09,1.09,0,0,0,.39.08,1,1,0,0,0,.39-1.92ZM294.7,52.91c-2.13-1-4.33-1.88-6.56-2.71a1,1,0,0,0-.69,1.88c2.17.81,4.34,1.7,6.42,2.65a1.06,1.06,0,0,0,.42.09,1,1,0,0,0,.41-1.91ZM227,51.29a1,1,0,0,0-1.23-.69c-2.25.63-4.53,1.24-6.77,1.79a1,1,0,0,0,.24,2,1,1,0,0,0,.24,0c2.26-.56,4.56-1.17,6.83-1.81A1,1,0,0,0,227,51.29Zm13.46-4.13a1,1,0,0,0-1.22-.72l-1.53.41-.07,0c-.12.05-2,.73-5.16,1.72a1,1,0,0,0,.3,2,1.18,1.18,0,0,0,.31,0c2.89-.92,4.4-1.39,5.16-1.74h0l1.48-.4A1,1,0,0,0,240.46,47.16ZM281.4,48c-2.27-.66-4.59-1.25-6.88-1.73a1,1,0,1,0-.42,1.95c2.25.48,4.51,1.05,6.74,1.7a1,1,0,0,0,.28,0,1,1,0,0,0,1-.72A1,1,0,0,0,281.4,48Zm-28.08-3.6c-2.39.11-4.78.33-7.09.67a1,1,0,0,0,.14,2h.15a67.55,67.55,0,0,1,6.89-.65,1,1,0,0,0-.09-2Zm14.2.66c-2.38-.32-4.76-.53-7.08-.64a1,1,0,0,0-1.05,1,1,1,0,0,0,1,1c2.26.11,4.59.31,6.91.62h.13a1,1,0,0,0,1-.87A1,1,0,0,0,267.52,45Z"/>
      <path class="cls-4"
            d="M12.3,258.37a1,1,0,0,1-.35-1.94l3.3-1.19a1,1,0,0,1,.68,1.88c-1.09.39-2.19.78-3.29,1.19A1,1,0,0,1,12.3,258.37Z"/>
      <polygon class="cls-5" points="432.3 326.89 426.76 340.76 418.32 322.98 430.87 316.21 432.3 326.89"/>
      <path class="cls-6"
            d="M196.45,333.69c-2.56,8.88-6,13.46-6.14,23.48-.11,6.68-.07,18.32,0,25.34v0c0,.55,0,1.08,0,1.57v.07c0,.55,0,1.05,0,1.51,0,1.68,0,2.69,0,2.69H177.67v-.08l.07-.5H186a3.48,3.48,0,0,0,3.3-2.39l.4-1.23H178.26l6-43.13,9.12-26.85,1.53-4.5.08-.25c.07.14.13.27.19.41q.39.81.72,1.56C200.48,321.61,198.87,325.34,196.45,333.69Z"/>
      <g class="cls-7">
        <path
            d="M188.23,388.21c0,.11,0,.16,0,.16H174v-.08l.07-.5h12a3.45,3.45,0,0,0,2.1-.71c0,.22,0,.41.05.58S188.22,388.09,188.23,388.21Z"/>
        <path
            d="M194.79,326.08c-.41,2.29-1.17,4.66-2,7.61-2.56,8.88-6,13.46-6.14,23.48-.12,7.24.78,20.31,1.28,27H174.58l6-43.13,5.66-16.67,1.55-4.57h0l.29-.85s0,0,0,0l1.24-3.62.17-.51.51-1.51s0,0,0,0l1.31-3.84c.84,1.75,1.52,3.32,2.07,4.75C195.28,319.18,195.45,322.52,194.79,326.08Z"/>
      </g>
      <path class="cls-6"
            d="M174.58,384.17h8.65c-.11-3.34-.79-31.9,6.7-46.41a69.74,69.74,0,0,0,4.86-11.68c1.72-5.7,2.05-10.55,1.14-14.67-.11-.51-.24-1-.39-1.49a11.1,11.1,0,0,0-.39-1.15,17.19,17.19,0,0,0-1-2.22c-.16-.29-.33-.58-.5-.86a20.17,20.17,0,0,0-5.26-5.55c-.53-.39-1.09-.77-1.67-1.13-.34-.21-.7-.42-1.06-.62l-.15-.08c-.41-.24-.84-.46-1.27-.68l-.14-.07c-.28-.14-.58-.28-.89-.41l-.73-.31h0a65.2,65.2,0,0,0-11.57-3.2c-.91-.18-1.85-.35-2.81-.51-1.7-.3-3.47-.57-5.28-.82l-.41-.05L160,292h0c-3.45-.41-7-.73-10.65-.95-2.61-.16-5.24-.27-7.84-.33-1.24,0-2.47,0-3.69,0-12.34,0-23.7,1.24-29.67,4.18-4.07,2-6.29,6-7.39,11.07h0c-2.87,13.17,1.85,33.48,1.34,44.07a94.15,94.15,0,0,0,1.83,20.52c1.43,7.73,3.15,13.61,3.15,13.61l15.23.08h1.21l4.89,0Z"/>
      <path class="cls-1"
            d="M428.57,338.61c0,1.37,0,2.72-.05,4.07h0c0,.2,0,.39,0,.58,0,2.09-.07,4.17-.12,6.22a273.93,273.93,0,0,1-2.76,34.68H390.18l-1.87-7L387,372.3l-.49,5.91-.49,6H356.28c-2.17-17.09-1.15-35.33,1.77-54.81.51-3.38,1.07-6.81,1.69-10.27l40.2-2.66,15.55-1,6.84-.45-1,4.06-.67,2.72-.46,1.87L426.54,335l1.4,2.51.08.13h0Z"/>
      <g class="cls-8">
        <path
            d="M428.57,338.61c0,1.37,0,2.72-.05,4.07h0c0,.2,0,.39,0,.58,0,2.09-.07,4.17-.12,6.22a273.93,273.93,0,0,1-2.76,34.68h-7.1c2.37-9.77,4.32-21.58,5.7-31.17.81-5.63,1.42-10.5,1.8-13.75,0-.1,0-.19,0-.27.3-2.53.46-4,.46-4l1.4,2.51.08.13h0Z"/>
      </g>
      <g class="cls-8">
        <polygon points="386.98 372.3 386.49 378.21 386 384.17 380.62 384.17 381.04 381.09 383.86 360.53 386.98 372.3"/>
      </g>
      <polygon class="cls-4" points="69.45 384.17 68.35 390.59 51.53 390.59 50.36 384.17 69.45 384.17"/>
      <path class="cls-4"
            d="M174.58,384.17H101.3c4.87,9.32,11,8.29,11,8.29,4.33-.57,9.09-3,13.93-6.61q1.06-.78,2.13-1.65Z"/>
      <path class="cls-4"
            d="M272.68,384.17l-2,6.17a4.08,4.08,0,0,1-4,2.66h-111a2.62,2.62,0,0,1-2.37-2.81,2.19,2.19,0,0,1,2-2.4H186a3.48,3.48,0,0,0,3.3-2.39l.4-1.23Z"/>
      <path class="cls-4"
            d="M290.91,384.17h1.79a4.3,4.3,0,0,0-1.09.72,2.27,2.27,0,0,0-.79,1.86.5.5,0,0,1-.48.51h0a.5.5,0,0,1-.5-.48A3.25,3.25,0,0,1,290.91,384.17Z"/>
      <path class="cls-4"
            d="M317.91,385v.11a6.57,6.57,0,0,1-6.46,6.57h-.11a6.58,6.58,0,0,1-6.57-6.46,4.86,4.86,0,0,1,.07-1h1a4.62,4.62,0,0,0-.08,1,5.5,5.5,0,0,0,1.7,3.91,5.3,5.3,0,0,0,4,1.56,5.57,5.57,0,0,0,5.47-5.66,5.29,5.29,0,0,0-.08-.8h1A6.46,6.46,0,0,1,317.91,385Z"/>
      <path class="cls-4"
            d="M334.32,384.66v.12a6.57,6.57,0,0,1-6.45,6.57h-.12a6.59,6.59,0,0,1-6.57-6.46,5.15,5.15,0,0,1,0-.56,3.86,3.86,0,0,0-.79.56,2.27,2.27,0,0,0-.79,1.86.5.5,0,0,1-.48.51h0a.5.5,0,0,1-.5-.48,3.25,3.25,0,0,1,1.09-2.61h2.51a5.37,5.37,0,0,0,0,.7,5.57,5.57,0,1,0,11.14-.19,2.92,2.92,0,0,0,0-.51h1A4,4,0,0,1,334.32,384.66Z"/>
      <polygon class="cls-4"
               points="489.68 384.8 489.68 387.69 487.73 387.69 486.63 390.54 459.02 390.54 457.92 387.69 454.77 387.69 454.77 384.8 489.68 384.8"/>
      <path class="cls-4"
            d="M105.64,130.7a17.9,17.9,0,0,0,5.16,12.67,14.39,14.39,0,0,0,1.07,1l0,0a15.07,15.07,0,0,0,4,2.28,18.9,18.9,0,0,0,6.89,1.25l37.41,0a14.93,14.93,0,0,0,10.49-4.32,15.23,15.23,0,0,0,4.56-10.6,14.51,14.51,0,0,0-.08-2,13.74,13.74,0,0,0-5.11-9.09,6,6,0,0,0-3.79-1.36,6.15,6.15,0,0,0-4,1.46,21.17,21.17,0,0,0-2.87-9.58c-3.38-5.49-8.35-8.44-15.18-9h-.07l-1,0c-6.53,0-12.09,3.22-16.09,9.29-.73-.05-1.45-.07-2.13-.07a25.62,25.62,0,0,0-4.17.33A17.66,17.66,0,0,0,105.64,130.7Z"/>
      <path class="cls-4"
            d="M222.72,208.65a20.45,20.45,0,0,0,5.89,14.47c.39.4.8.78,1.22,1.14l.06.05a17.47,17.47,0,0,0,4.6,2.61,21.53,21.53,0,0,0,7.87,1.43l42.72,0a17,17,0,0,0,12-4.94,17.32,17.32,0,0,0,5.21-12.1,19,19,0,0,0-.1-2.26,15.67,15.67,0,0,0-5.83-10.38,6.84,6.84,0,0,0-4.32-1.54,7,7,0,0,0-4.53,1.66,24.44,24.44,0,0,0-3.28-10.95c-3.86-6.27-9.53-9.63-17.33-10.28h-.08l-1.12,0c-7.45,0-13.81,3.67-18.38,10.61-.83-.06-1.65-.09-2.42-.09a28.36,28.36,0,0,0-4.77.38A20.17,20.17,0,0,0,222.72,208.65Z"/>
      <ellipse class="cls-9" cx="192.89" cy="280.4" rx="12.88" ry="4.8"
               transform="translate(-142.74 336.78) rotate(-65.01)"/>
      <g class="cls-7">
        <path
            d="M151.91,287.41S141.05,284,140.5,295s7.64,13.77,6.44,27c0,5.35,8.3-6.41,12.1-6.81,4-.42,8.28,7.6,10.77,6,0,0,2.32-20.86-6.36-28S151.91,287.41,151.91,287.41Z"/>
      </g>
      <g class="cls-7">
        <path
            d="M164.7,344.7a23.18,23.18,0,0,1-2.07,4.1c-3.7,5.78-16.13,24.41-28.95,35.29H108.25c-2-4-3.75-10-4.56-18.95-2.64-29,.63-49.86,5.47-53.88,9.76-8.1,22.12,7,19.39,22.42s-6.68,23.13-6.68,23.13l34.58-22.46s5.91-2,9.61,1C167.52,336.59,165.86,341.66,164.7,344.7Z"/>
      </g>
      <path class="cls-6"
            d="M151.34,282.84s-13-2.35-13.58,8.51,7.92,13.69,6.67,26.82c0,5.32,7.08-3.28,13.39-3.56s7.75,4.35,10.33,2.71c0,0,5.61-21.57-3.39-28.64S151.34,282.84,151.34,282.84Z"/>
      <path class="cls-9"
            d="M173.85,298.61s-1.5,2-3.73,4.52c-3.08,3.51-7.59,8-11.44,9.62-6.64,2.75-6.41-6.2-7.14-10.93s-2.63-11.61-2.75-14.92,5.5-12.08,5.5-12.08h0c.29,0,3.16-.32,4.12-.49S173.85,298.61,173.85,298.61Z"/>
      <g class="cls-8">
        <path
            d="M173.85,298.61s-1.5,2-3.73,4.52c-8.23-5.39-17-20.37-14.25-27.86a5.5,5.5,0,0,1-1.56-.45c.29,0,3.16-.32,4.12-.49S173.85,298.61,173.85,298.61Z"/>
      </g>
      <path class="cls-10"
            d="M206.74,244.56c1.54-.2,3.07-.79,3.66-2.23,1.36-3.31-2.71-4.27-8.71-3.79,0,0-16.05-8.44-26-5,0,0-6.39,2-6.62,2.37l-.75.36a15.41,15.41,0,0,0-5.93,5.08c-3,4.39-7.57,12.59-7.87,22.7l-5,7.47a2.63,2.63,0,0,0,1.21,3.9c2.43,1,5.84,1.6,6.62.89L176,259.42l22.7.57c0,.17,5.75,2.49,8.39-.06,1.82-1.76,1.21-4.73-.78-6.57,2.55.33,5.42,0,6.25-2.49C213.92,246.9,210.33,245.11,206.74,244.56Z"/>
      <path class="cls-9"
            d="M198.16,255.35a7.05,7.05,0,0,1,1.72,6c-1.56,9.37-7.34,36.25-22.89,39.93-8.94,2.32-24.62-20-21.12-29.67a4.86,4.86,0,0,1-4.32-5.05c0-4.65-.25-9.81,3-10.7s4.61,3,4.61,3,1.81,4.53,1.67,6-.61,2.91,1,2.82,4-10.08,9.29-12.07,1.76-7.82,4.1-9.84,4.77-1.3,8.44-.07A40.87,40.87,0,0,1,198.16,255.35Z"/>
      <path class="cls-9"
            d="M174.54,312.84s6.1-5.41,7.43-7.17c.73-1,1.89-2.36,2.79-3.42a1.16,1.16,0,0,1,2,.47c.91,3.83-6.67,11.64-6.67,11.64Z"/>
      <path class="cls-11"
            d="M216.83,266.81a13.46,13.46,0,0,0-2-1.33l-2.16-1.41a12.86,12.86,0,0,0-1.79-1.18l-.08-.05h0a13.45,13.45,0,0,0-8.17-1.46c-6.36.8-12.55,5.65-16.05,12.77-4.72,9.6-2.94,20.3,3.8,25.11l-12.38,17.51a4.5,4.5,0,0,0,4.13,3.28l13.6-18.36.41.22a13.17,13.17,0,0,0,6.42,1.31c5.76-.23,11.78-3.85,15.72-9.79h0C224.3,284.22,223.68,272.28,216.83,266.81ZM194.36,300c-6.2-4.94-6.66-15.38-1-23.95s15-12.25,21.95-9l1,.8c4.77,6.31,3.67,17.07-2.72,24.85C208.35,299,200.68,302.05,194.36,300Z"/>
      <path class="cls-9"
            d="M195.77,310.72a3.58,3.58,0,0,0-1.91-3.15,5.86,5.86,0,0,0-1.85-.37l-.4,0a55.52,55.52,0,0,0-8,.05c-1.16.08-.39-.07-1.55,0a12.28,12.28,0,0,0-2.55.38,5.74,5.74,0,0,0-2,1.39c-2.47,2.2-6.22,5.43-8.15,8.16a57.27,57.27,0,0,1-6.76,7.93c-.85.84-1.72,1.63-2.57,2.47-1.72,1.67-3.37,3.57-5.21,5.08a14,14,0,0,1-2,2.46c.13.3.31-.41.43-.11l.05,0,0,.06a25.69,25.69,0,0,0,2.22,5.23,15.2,15.2,0,0,0,4.47,4.77l4.44-4.79c2.73-2.94,4.82-6.73,8.54-8.22a37.47,37.47,0,0,1,6.43-1.57,20.45,20.45,0,0,0,5.66-2.11,21.93,21.93,0,0,0,4.21-2.65c.72-.65.38-1.5,1.12-2a9.16,9.16,0,0,0,2.6-2.35c.53-.87.16-1.31.17-2.18,0-.53.59-.9.92-1.25a5.3,5.3,0,0,0,1.08-1.61,4.44,4.44,0,0,0,.33-1.43,2.21,2.21,0,0,0,0-.73c-.08-.23-.91-.29-.8-.55s.8-.82.91-1.22A4.72,4.72,0,0,0,195.77,310.72Z"/>
      <g class="cls-12">
        <path class="cls-9"
              d="M182.89,313.55a.38.38,0,0,1-.34-.23.36.36,0,0,1,.19-.49,14.43,14.43,0,0,1,11.34-.39.38.38,0,0,1,.22.48.37.37,0,0,1-.49.22,13.77,13.77,0,0,0-10.77.37A.42.42,0,0,1,182.89,313.55Z"/>
      </g>
      <g class="cls-12">
        <path class="cls-9"
              d="M182.21,324.05a.4.4,0,0,1-.38-.34c-.05-.48.56-.65.79-.71,1.08-.3,6.63-.78,7,.15a.38.38,0,0,1-.64.38c-.73-.36-5.72-.14-6.47.28a.38.38,0,0,1-.31.23Zm6.77-.6h0Z"/>
      </g>
      <g class="cls-12">
        <path class="cls-9"
              d="M183.32,318.93a.37.37,0,0,1-.27-.12.38.38,0,0,1,0-.53c1.12-1.07,6-1.2,7.54-.43a.37.37,0,1,1-.32.67c-1.39-.67-5.89-.47-6.7.3A.36.36,0,0,1,183.32,318.93Z"/>
      </g>
      <path class="cls-6"
            d="M165.06,340.86s-18.35,28.65-36.51,43.23a.39.39,0,0,1-.1.08s0,0,0,0q-1.06.87-2.13,1.65c-4.84,3.57-9.6,6-13.93,6.61,0,0-6.18,1-11-8.29-2.21-4.22-4.16-10.58-5.14-20.12,0-.46-.09-.92-.13-1.39-2.53-28.29,1.44-48.32,4.73-56.77h0a22.19,22.19,0,0,1,1.25-2.73c3.37-6,9.26-7.62,14.58-6.82s8.53,8.16,8.53,8.16,2.08,2.43,2.52,9.23v0a45.59,45.59,0,0,1-.13,7.09q-.23,2.71-.79,6a155.57,155.57,0,0,1-7.33,27.93l4.46-2.78,33.35-21.62h0l0,0a28.53,28.53,0,0,0,.39,3.73,8.25,8.25,0,0,0,2.91,5,8.5,8.5,0,0,0,4.16,1.81h0Z"/>
      <path class="cls-11"
            d="M196.25,271.83a.5.5,0,0,1-.46-.3c-.56-1.3-2.07-3.42-5.81-3.06a.5.5,0,1,1-.1-1c4.39-.42,6.16,2.11,6.83,3.66a.51.51,0,0,1-.26.66A.71.71,0,0,1,196.25,271.83Z"/>
      <path class="cls-13"
            d="M180.55,265.87c.74.2,1.12,1.26.82,2.38s-1.15,1.87-1.89,1.67-1.11-1.26-.82-2.38S179.81,265.67,180.55,265.87Z"/>
      <path class="cls-13"
            d="M192.75,272.55c.74.2,1.12,1.26.82,2.38s-1.14,1.87-1.88,1.67-1.11-1.26-.82-2.38S192,272.35,192.75,272.55Z"/>
      <path class="cls-11"
            d="M186.2,265.11a.49.49,0,0,1-.45-.29,8,8,0,0,0-7.27-4h-.36a.5.5,0,0,1,0-1,9.07,9.07,0,0,1,8.54,4.56.5.5,0,0,1-.24.67A.54.54,0,0,1,186.2,265.11Z"/>
      <path class="cls-11"
            d="M180.77,284.39a.56.56,0,0,1-.27-.08.5.5,0,0,1-.15-.69l.9-1.41a.5.5,0,0,1,.62-.18l.76.34c1.49.69,2.1,1,3.46.18.9-.53.39-6.72-.65-12.16a.5.5,0,1,1,1-.19c.54,2.81,2.14,12.06.17,13.21-1.8,1-2.82.58-4.38-.13l-.35-.16-.67,1A.49.49,0,0,1,180.77,284.39Z"/>
      <path class="cls-11"
            d="M174.92,289.84a.45.45,0,0,1-.16,0c-3-1-3.92-2.5-4.47-7.13a.5.5,0,0,1,1-.12c.54,4.52,1.33,5.45,3.8,6.3a.51.51,0,0,1,.31.64A.49.49,0,0,1,174.92,289.84Z"/>
      <path class="cls-10"
            d="M170.31,235.69s-6.24-4.16-7.69-1.65-.54,2.64-.37,2.75a32,32,0,0,0,4.64.77,18.81,18.81,0,0,0,3.41,0Z"/>
      <path class="cls-10"
            d="M173.17,235.24s5-6.1,4.31-8.71-3.46-1.2-4.64,0-4.79,5.23-4,9.55,2.66,1.74,2.8,1.53S173.17,235.24,173.17,235.24Z"/>
      <path class="cls-11"
            d="M317.84,384.17a5.89,5.89,0,0,0-.28-1.19,5,5,0,0,0-.39-.92,6.56,6.56,0,0,0-5.83-3.56h-.12a6.58,6.58,0,0,0-6.18,4.7,5.22,5.22,0,0,0-.2,1,4.86,4.86,0,0,0-.07,1,6.58,6.58,0,0,0,6.57,6.46h.11a6.57,6.57,0,0,0,6.46-6.57V385A6.46,6.46,0,0,0,317.84,384.17Zm-2.49,4.76a5.54,5.54,0,0,1-3.91,1.7,5.3,5.3,0,0,1-4-1.56,5.5,5.5,0,0,1-1.7-3.91,4.62,4.62,0,0,1,.08-1,5.56,5.56,0,0,1,5.39-4.67h.1a5.57,5.57,0,0,1,5.49,4.67,5.29,5.29,0,0,1,.08.8A5.57,5.57,0,0,1,315.35,388.93Z"/>
      <path class="cls-11"
            d="M334.29,384.17a6.33,6.33,0,0,0-.16-1,5.71,5.71,0,0,0-.34-1,6.56,6.56,0,0,0-12-.21,6.21,6.21,0,0,0-.37.93,1.6,1.6,0,0,0-.05.21,5.25,5.25,0,0,0-.19,1.05.81.81,0,0,0,0,.16,5.15,5.15,0,0,0,0,.56,6.59,6.59,0,0,0,6.57,6.46h.12a6.57,6.57,0,0,0,6.45-6.57v-.12A4,4,0,0,0,334.29,384.17Zm-6.44,6.18a5.57,5.57,0,0,1-5.67-5.48,5.37,5.37,0,0,1,0-.7,3.11,3.11,0,0,1,0-.32,5.14,5.14,0,0,1,.31-1.12l0,0a5.57,5.57,0,0,1,5.06-3.49h.1a5.6,5.6,0,0,1,4.87,2.87,4.78,4.78,0,0,1,.44,1,4.45,4.45,0,0,1,.22,1.05,2.92,2.92,0,0,1,0,.51A5.58,5.58,0,0,1,327.85,390.35Z"/>
      <path class="cls-11"
            d="M316.94,383.21a.5.5,0,0,1-.45-.27.5.5,0,0,1,.22-.67,6.13,6.13,0,0,1,5.58-.1.5.5,0,0,1-.42.9,5.15,5.15,0,0,0-4.71.09A.59.59,0,0,1,316.94,383.21Z"/>
      <path class="cls-11"
            d="M305.76,382.77a.51.51,0,0,1-.55.44H305c-1.21-.13-8.72-.81-12.34,1a4.3,4.3,0,0,0-1.09.72,2.27,2.27,0,0,0-.79,1.86.5.5,0,0,1-.48.51h0a.5.5,0,0,1-.5-.48,3.25,3.25,0,0,1,1.09-2.61l0,0c3.42-3.17,13.95-2,14.39-1.93l.09,0A.48.48,0,0,1,305.76,382.77Z"/>
      <path class="cls-11"
            d="M334.56,382.77a.49.49,0,0,1-.43.43H334l-.95-.09c-2.15-.17-7.52-.45-10.8.73a5.78,5.78,0,0,0-.76.32l-.3.16a3.86,3.86,0,0,0-.79.56,2.27,2.27,0,0,0-.79,1.86.5.5,0,0,1-.48.51h0a.5.5,0,0,1-.5-.48,3.25,3.25,0,0,1,1.09-2.61l0,0a5.55,5.55,0,0,1,1.67-1l.28-.12a7.73,7.73,0,0,1,.89-.29h0c3.26-.93,7.73-.78,10-.62l1.17.11.33,0A.5.5,0,0,1,334.56,382.77Z"/>
      <path class="cls-5"
            d="M265.1,295s-5.43,3.71-8.05,6-9.21,4.9-9.21,4.9l-3,6.19-3.17,6.14s-3,10.87-2.3,11.11c1.89.64,3.92-2.59,5.45-6.48s4.9-8.87,6.54-10a5.57,5.57,0,0,1,5.32-.06c.89.73,2,.77,1.05,4.66s-1.42,6-.86,7.37,2,1.61,3.69-2.95,2.08-5.37,4-7.62,4.2-6.57,3.69-9.53c0,0,4.18-4.27,4.12-4.8S265.1,295,265.1,295Z"/>
      <path class="cls-5"
            d="M249.72,316.33s.8,4.64,2,5.05S258.7,320,258.7,320s1.85-1.65,1.85-3.42.39-7.7.39-7.7l-11,2.72Z"/>
      <g class="cls-14">
        <path class="cls-15"
              d="M248.42,315.82a.36.36,0,0,1-.22-.07.38.38,0,0,1-.08-.53c.29-.4,2.93-4,4.4-4.51a15.52,15.52,0,0,1,4.61-.23c.66,0,1.22,0,1.57,0a.38.38,0,0,1,0,.75c-.38,0-1,0-1.64,0a15.89,15.89,0,0,0-4.33.19c-1.06.38-3.28,3.19-4,4.24A.37.37,0,0,1,248.42,315.82Z"/>
      </g>
      <g class="cls-14">
        <path class="cls-15"
              d="M254.19,317.67c-.42,0-.58-.3-.82-1a5.28,5.28,0,0,1-.27-2,.39.39,0,0,1,.41-.34.38.38,0,0,1,.34.41,4.35,4.35,0,0,0,.23,1.65,2.58,2.58,0,0,0,.21.54s.16-.09.33-.15l.22-.07c.95-.3,1.72-.52,1.72-.52a.38.38,0,0,1,.21.72s-.77.22-1.7.52l-.22.07A2.6,2.6,0,0,1,254.19,317.67Z"/>
      </g>
      <g class="cls-14">
        <path class="cls-15"
              d="M255.13,314.45c-.39,0-.53-.27-.75-.88l-.27-.79a.38.38,0,0,1,.23-.48.39.39,0,0,1,.48.23l.27.79c0,.14.1.28.14.37l.25-.08.19-.06a11.71,11.71,0,0,0,2.24-1.36.37.37,0,0,1,.52.07.38.38,0,0,1-.07.53,12.53,12.53,0,0,1-2.47,1.48l-.18.06A2.29,2.29,0,0,1,255.13,314.45Z"/>
      </g>
      <g class="cls-14">
        <path class="cls-15"
              d="M257.68,319.33a.38.38,0,0,1-.24-.09.37.37,0,0,1,0-.53,6.48,6.48,0,0,0,.67-2.32,5.47,5.47,0,0,1,.35-1.38c.28-.51.56-1.2.56-1.2a.39.39,0,0,1,.5-.2.37.37,0,0,1,.2.49s-.31.73-.61,1.27a6.54,6.54,0,0,0-.26,1.15,6.46,6.46,0,0,1-.84,2.67A.37.37,0,0,1,257.68,319.33Z"/>
      </g>
      <path class="cls-16"
            d="M59.56,367.15c2-3.35,3.92-6.69,5.73-10.13s3.5-6.95,5.11-10.53c.8-1.79,1.54-3.62,2.3-5.44s1.45-3.68,2.17-5.54c1.41-3.72,2.72-7.5,4.12-11.31a.67.67,0,0,1,1.29.26,85.83,85.83,0,0,1-1.44,12.16c-.18,1-.4,2-.6,3s-.49,2-.73,3c-.49,2-1.09,4-1.73,5.93A75.73,75.73,0,0,1,71,360a55.08,55.08,0,0,1-6.9,10.4,2.8,2.8,0,0,1-4.54-3.24Z"/>
      <path class="cls-16"
            d="M54.33,364.6a11.27,11.27,0,0,0,3.79-3.36,22.39,22.39,0,0,0,2.64-5,45.57,45.57,0,0,0,2.66-11.65,65.73,65.73,0,0,0,.16-12.23c-.18-2-.38-4.05-.72-6a26.24,26.24,0,0,0-1.56-5.78l0-.07a.83.83,0,0,1,.46-1.09.84.84,0,0,1,.9.17,16.24,16.24,0,0,1,3.61,5.81A32.08,32.08,0,0,1,68,331.84a48.86,48.86,0,0,1,.66,6.6,56.42,56.42,0,0,1-.1,6.63,44.84,44.84,0,0,1-2.8,13.17,23.9,23.9,0,0,1-3.48,6.18,15.12,15.12,0,0,1-5.93,4.67,2.46,2.46,0,0,1-2.09-4.44Z"/>
      <path class="cls-16"
            d="M54.33,365.38a5.64,5.64,0,0,0,2.08-2.89A21,21,0,0,0,57.49,358a59.61,59.61,0,0,0,.45-9.87c-.08-3.36-.38-6.72-.71-10.07-.19-1.68-.4-3.35-.66-5-.15-.82-.28-1.65-.47-2.44a9,9,0,0,0-.71-2.18l-.07-.13a.65.65,0,0,1,1-.8,7.78,7.78,0,0,1,1.74,2.35,22.77,22.77,0,0,1,1.12,2.48,42.34,42.34,0,0,1,1.59,5.1,61.64,61.64,0,0,1,1.58,10.49,52.88,52.88,0,0,1,.12,5.35,38.66,38.66,0,0,1-.47,5.43,22.08,22.08,0,0,1-1.59,5.5c-.2.45-.48.91-.72,1.36a10.8,10.8,0,0,1-1,1.31A7.24,7.24,0,0,1,55.86,369a1.93,1.93,0,0,1-1.78-3.42Z"/>
      <path class="cls-16"
            d="M39,314.42a82.58,82.58,0,0,1,9,13.5,108.7,108.7,0,0,1,6.65,14.81c1,2.54,1.75,5.14,2.57,7.73l1.06,3.94.52,2,.45,2c.29,1.32.61,2.65.89,4s.46,2.69.72,4c.12.67.26,1.34.37,2s.18,1.36.29,2c.19,1.36.4,2.72.64,4.07a3,3,0,1,1-5.91,1.05,2.25,2.25,0,0,1,0-.44v-.17a79.69,79.69,0,0,0-1.8-15.52L54,357.49l-.48-1.9-1-3.81c-.76-2.51-1.43-5-2.31-7.52-1.64-5-3.45-9.94-5.47-14.82s-4.13-9.76-6.41-14.58v0a.39.39,0,0,1,.19-.52A.4.4,0,0,1,39,314.42Z"/>
      <path class="cls-16"
            d="M33.8,326.68c1.79,3.72,3.69,7.39,5.65,11s4,7.19,6.17,10.66a99.19,99.19,0,0,0,6.94,9.9,34.4,34.4,0,0,0,3.88,4.14l1,.81c.33.19.66.46,1,.61a2.89,2.89,0,0,0,1.3.43,3.93,3.93,0,0,1,.63,7.84,3.87,3.87,0,0,1-1.23-.1l-.49-.12a9.6,9.6,0,0,1-2.46-.86,11.11,11.11,0,0,1-1.87-1.18c-.56-.41-1-.85-1.49-1.28s-.85-.88-1.25-1.33a39.65,39.65,0,0,1-3.93-5.47,103.32,103.32,0,0,1-5.87-11.33c-1.73-3.83-3.3-7.69-4.78-11.58S34.09,331,32.8,327.07a.55.55,0,0,1,.35-.68.54.54,0,0,1,.65.28Z"/>
      <path class="cls-17"
            d="M61.83,369a.26.26,0,0,1-.15,0,.26.26,0,0,1-.06-.35c8.22-11.4,14.2-26.33,17.77-44.36a.24.24,0,0,1,.29-.19.24.24,0,0,1,.2.29c-3.58,18.1-9.59,33.09-17.85,44.55A.25.25,0,0,1,61.83,369Z"/>
      <path class="cls-17"
            d="M55.75,368.32a.25.25,0,0,1-.23-.15.25.25,0,0,1,.12-.33c5.22-2.32,7.84-8.61,9.11-13.48,3-11.4,1.77-27.09-2.57-32.91a.24.24,0,0,1,.06-.35.23.23,0,0,1,.34,0c4.41,5.92,5.68,21.81,2.66,33.33-1.87,7.14-5.12,11.91-9.39,13.81Z"/>
      <path class="cls-17"
            d="M55.1,367.42a.24.24,0,0,1-.23-.15.25.25,0,0,1,.13-.33c1.67-.71,3-2.46,3.8-5.19,3.15-10.1-.47-29.4-2.4-32.48a.24.24,0,0,1,.07-.34.26.26,0,0,1,.35.08c2.25,3.58,5.5,23.15,2.46,32.89-.9,2.88-2.27,4.73-4.08,5.5A.2.2,0,0,1,55.1,367.42Z"/>
      <path class="cls-17"
            d="M59.1,375a.25.25,0,0,1-.25-.23c-2.39-32.74-19-57.63-19.17-57.88a.24.24,0,0,1,.06-.34.25.25,0,0,1,.35.06c.17.25,16.86,25.25,19.26,58.12a.25.25,0,0,1-.23.27Z"/>
      <path class="cls-17"
            d="M59.16,368.31h0c-10.26-1.46-24.33-37-24.92-38.55a.25.25,0,0,1,.14-.33.25.25,0,0,1,.32.15c.15.36,14.55,36.82,24.53,38.23a.25.25,0,0,1,0,.5Z"/>
      <polygon class="cls-1"
               points="72.83 364.55 69.45 384.17 68.35 390.59 51.53 390.59 50.36 384.17 46.79 364.55 72.83 364.55"/>
      <g class="cls-18">
        <polygon points="72.83 364.55 69.45 384.17 68.35 390.59 65.16 390.59 65.16 364.55 72.83 364.55"/>
      </g>
      <path class="cls-19"
            d="M432.31,317.86c-2.8.12-6.21.45-9.84,1h0a102.91,102.91,0,0,0-20.84,5,117.76,117.76,0,0,1-11.91,3.87c-11.63,3.1-24.12,4.32-34.45.78.21-5.84,1-16.45,1-16.46.73-26.62,3.3-54.13.76-72.24-.4-2.89-.87-5.54-1.42-7.9a8.7,8.7,0,0,1-.19-1.19c-.4-3.49.48-8.29.42-11.53l-.32-18.92c.58-.45,1.26-1,2-1.51h0c6.22-4.61,11.86-8.15,25.19-12.43,10.38-3,26.43-2.44,36.2-1.09,4.92.68,8.85,7.14,8.87,13.27l.09,20.54c0,.13,0,.28,0,.41C424.57,254.63,430.47,285.31,432.31,317.86Z"/>
      <g class="cls-20">
        <path
            d="M431.91,317.84a68,68,0,0,0-9.44,1h0a102.91,102.91,0,0,0-20.84,5,117.76,117.76,0,0,1-11.91,3.87l16.56-18.31,10.07-49.52-2.71-49.14s12.56,5.67,13.5,6.18a3.43,3.43,0,0,1,.34,1.2C424,253.32,429.93,285.29,431.91,317.84Z"/>
      </g>
      <path class="cls-19"
            d="M463.58,278.26l-29.79,51.8-4.76-6.6-4.55-4.28c7.82-13.69,12.73-37.35,18.58-47.52,1.72-3,2.32-6.61.59-9.6l-29.72-44.82c-.56-2.66-.16-7-.2-9.12a6.22,6.22,0,0,1-2.22-4.77,6.35,6.35,0,0,1,.56-2.58l8.41-15s3.93.7,8,5.65h0a13.19,13.19,0,0,1,4.27,6.51c.49,1.86,33,59.65,33,59.65C468.69,264.12,466.9,271.84,463.58,278.26Z"/>
      <g class="cls-20">
        <path
            d="M463.58,278.2,433.79,330,429,323.41l-1.45-3s26.68-33.52,32.57-44.38-7.24-31.47-9.5-39.39-22.17-45.25-22.17-45.25h0a13.22,13.22,0,0,1,4.27,6.52c.49,1.86,33,59.65,33,59.65C468.69,264.06,466.9,271.79,463.58,278.2Z"/>
      </g>
      <g class="cls-7">
        <path
            d="M452.41,266.2a.32.32,0,0,1-.14,0c-3.54-1.49-5.72-.42-5.75-.41a.37.37,0,1,1-.34-.66c.1-.06,2.5-1.26,6.38.38a.37.37,0,0,1,.2.49A.38.38,0,0,1,452.41,266.2Z"/>
      </g>
      <g class="cls-7">
        <path
            d="M457.24,273.26a.38.38,0,0,1-.38-.35c0-.08-.23-2-3.41-3.32a18.64,18.64,0,0,0-6.79-1.27.42.42,0,0,1-.39-.36.38.38,0,0,1,.36-.39,19.12,19.12,0,0,1,7.1,1.32c3.64,1.48,3.87,3.86,3.88,4a.38.38,0,0,1-.35.4Z"/>
      </g>
      <path class="cls-19"
            d="M356.76,237.74l.34,2.13c-.48-.82-1-1.65-1.64-2.51a3.88,3.88,0,0,0-.26-.31l-26.43,17.52a152.19,152.19,0,0,1-11.17,11.24l0,0c-15.8,14.85-45.29,36.85-45.29,36.85h0c-2-2.08-8.36-7.23-8.36-7.23s37.45-43,45.27-50.36l29.66-30.46,4.45-4.51c4-6.57,13.18-10.81,14.32-11.32l-2.16,1.51.35,18.93c.05,2.45-.49,5.82-.56,8.82v.08c0,.22,0,.44,0,.66v0a14.92,14.92,0,0,0,.11,1.94,8.67,8.67,0,0,0,.21,1.19C356,233.74,356.41,235.67,356.76,237.74Z"/>
      <g class="cls-21">
        <path class="cls-22"
              d="M357.1,239.87c-.48-.82-1-1.65-1.64-2.51a3.88,3.88,0,0,0-.26-.31l-26.43,17.52a152.19,152.19,0,0,1-11.17,11.24c1-1.07,7-8.52,8.52-13.38,0,0,17.08-11.38,23.82-16.13,4.17-2.93,3.58-5.52,3.74-7.23v0a4.81,4.81,0,0,0,0-.65l1.56,6.9Z"/>
      </g>
      <g class="cls-23">
        <path
            d="M410.81,206.14a.37.37,0,0,1-.34-.21,19.1,19.1,0,0,1-1.44-9.7,8.23,8.23,0,0,1,4.9-6.58.37.37,0,1,1,.26.7,7.51,7.51,0,0,0-4.42,6,18.68,18.68,0,0,0,1.38,9.28.39.39,0,0,1-.19.5Z"/>
      </g>
      <path class="cls-5"
            d="M377.32,209.53c-2.81.45-7.57-7.21-10.32-12.14,0,0,0,0,0,0-.87-1.58-1.54-2.87-1.88-3.52a1.63,1.63,0,0,1-.09-.19l-.12-.25v0l-.23-1.95,14.11-13.57,2.22-2.11,0,0,.39-.38-.57-.67a46.77,46.77,0,0,1,7.22,11C388.78,188.68,381.45,208.89,377.32,209.53Z"/>
      <g class="cls-24">
        <path class="cls-5"
              d="M380.56,174.87a41,41,0,0,1-1.91,13.66c-1.59,5-8.08,9-10.93,10-.87-1.58-2.72-4.9-3.06-5.55a1.63,1.63,0,0,1-.09-.19,1.23,1.23,0,0,1-.12-.25l0,0-.23-2,13.11-13.48,3.23-2.2Z"/>
      </g>
      <path class="cls-5"
            d="M381.87,162.12c-.44-1.21-.85-2.44-1.29-3.67a36,36,0,0,1-1.65-5c-1.11-3-2.06-5.05-2.06-5.05l-10.59-13.06s-21.08-1.27-22.14.73-10.46,17.45-10.46,17.45c-1.52-.73,11.1,30.56,14.43,33.64,2,1.83,12.91,15.76,27.16,1.06,0,0,7.09-10.23,7.08-19.24a33.83,33.83,0,0,0-.85-7A2.2,2.2,0,0,0,381.87,162.12Z"/>
      <path class="cls-11"
            d="M381.94,154.7c1.63-.53,4-3.49,3.06-8a19.35,19.35,0,0,0-6.06-10.17c-2.35-2.14-2.54-7.73-5.59-9.09s-8.7-.08-12.55-1.31-7.47-4.34-10.68-3.16-8.86,7.15-13.64,8.56-9.52,2.13-10.16,4.4,0,4.21,1.52,4.71c0,0-4.56.83-5.29,4.52s4,11.53,11.53,10.47l.69-3a13.94,13.94,0,0,0,10.81-2.41c5.39-3.81,8.14-15.33,17-13.51l4.63,2.36s.44,6.34,3.33,10.47,4,4.92,4.8,6.52.63,3.52,3.06,2.73S381.94,154.7,381.94,154.7Z"/>
      <ellipse class="cls-11" cx="356.3" cy="163" rx="1.5" ry="1.96" transform="translate(-0.38 0.83) rotate(-0.13)"/>
      <ellipse class="cls-11" cx="343.45" cy="167.96" rx="1.5" ry="1.96"
               transform="translate(-0.39 0.8) rotate(-0.13)"/>
      <path class="cls-11"
            d="M339.82,165.33l-.15,0a.47.47,0,0,1-.3-.59s1.17-3.45,5.74-3.45h.06a.48.48,0,0,1,.47.47.47.47,0,0,1-.47.47h-.06c-3.87,0-4.81,2.68-4.85,2.8A.47.47,0,0,1,339.82,165.33Z"/>
      <path class="cls-11"
            d="M350.8,160.22a.45.45,0,0,1-.29-.1.47.47,0,0,1-.08-.66c.11-.14,2.8-3.41,9.39-3.32a.46.46,0,0,1,.46.47.44.44,0,0,1-.47.47c-6.07-.08-8.62,2.93-8.65,3A.44.44,0,0,1,350.8,160.22Z"/>
      <path class="cls-11"
            d="M352.72,177.82a.47.47,0,0,1-.39-.2,2.34,2.34,0,0,0-1.79-1l-.46,0a5,5,0,0,1-1.55-.27,3.38,3.38,0,0,1-1.9-3.49,6.76,6.76,0,0,1,.8-2.38,10.84,10.84,0,0,0,.5-1.11,33.23,33.23,0,0,1,1.48-3.46.49.49,0,0,1,.65-.22.48.48,0,0,1,.21.64,31.38,31.38,0,0,0-1.44,3.36,12.25,12.25,0,0,1-.54,1.21,5.74,5.74,0,0,0-.7,2,2.43,2.43,0,0,0,1.29,2.51,4.21,4.21,0,0,0,1.26.21l.49,0a3.28,3.28,0,0,1,2.49,1.44.49.49,0,0,1-.12.67A.48.48,0,0,1,352.72,177.82Z"/>
      <path class="cls-11"
            d="M354.88,185.58a.45.45,0,0,1,0-.9c.25,0,6.15-.44,7.49-6.12a.45.45,0,0,1,.54-.34.45.45,0,0,1,.34.55c-1.5,6.34-8.25,6.81-8.32,6.81Z"/>
      <circle class="cls-5" cx="382.7" cy="159.75" r="6.08"/>
      <g class="cls-14">
        <path class="cls-15"
              d="M385.47,162.81a.5.5,0,0,1-.25-.94c.66-.38.68-2,.47-2.78a3.4,3.4,0,0,0-2.1-2.22.57.57,0,0,1-.29-.26.5.5,0,0,1,0-.38.51.51,0,0,1,.48-.34h0l.12,0a4.41,4.41,0,0,1,2.74,2.89c.28,1,.3,3.21-.93,3.93A.52.52,0,0,1,385.47,162.81Z"/>
      </g>
      <polygon class="cls-1" points="485.78 385.01 459.73 385.01 457.32 365.42 487.98 365.42 485.78 385.01"/>
      <g class="cls-25">
        <polygon class="cls-4"
                 points="465.76 373.99 461.66 369.98 457.94 373.8 457.58 373.45 461.65 369.27 465.77 373.31 470.54 369.01 475.03 373.07 479.75 368.84 483.83 372.94 487.4 368.67 487.79 368.99 483.86 373.68 479.73 369.53 475.03 373.74 470.54 369.68 465.76 373.99"/>
      </g>
      <rect class="cls-13" x="455.18" y="358.38" width="34.91" height="7.95"/>
      <rect class="cls-13" x="454.77" y="384.8" width="34.91" height="2.64"/>
      <polygon class="cls-13"
               points="487.89 387.28 487.83 387.44 487.73 387.69 486.63 390.54 459.02 390.54 457.92 387.69 457.82 387.44 457.76 387.28 487.89 387.28"/>
      <path class="cls-16"
            d="M478.1,308.27s6.59.76,9.29-14.11-.17-21.57-3.8-22.4-9.87,2.88-11.28,14.15S468.64,309,478.1,308.27Z"/>
      <path class="cls-16"
            d="M477.61,329.56s0-7.79,12.88-7.91S502,328.21,502,328.21s.28,3.88-5.15,3.84-5.68-.46-8.21.51-4.38,6.69-7.7,4.5S477.2,332.69,477.61,329.56Z"/>
      <path class="cls-16"
            d="M441.38,283.79s3.19-2.59,9.65,0,15.1,9.5,16.56,14,2,12.11-1.59,14.16-9.74,1.87-15.91-6.42S436.43,289.05,441.38,283.79Z"/>
      <path class="cls-17"
            d="M472.94,355.68a38.74,38.74,0,0,1,.27-9,32.37,32.37,0,0,1,2.43-8.71,21.51,21.51,0,0,1,5.25-7.41,17,17,0,0,1,8.08-4,26.5,26.5,0,0,0-4,1.94,20.72,20.72,0,0,0-3.51,2.65,21.57,21.57,0,0,0-2.88,3.3,25.34,25.34,0,0,0-2.19,3.82,36.61,36.61,0,0,0-2.57,8.48,47.16,47.16,0,0,0-.75,8.89Z"/>
      <path class="cls-17"
            d="M479.73,287.94l-1.89,8.51c-.6,2.85-1.09,5.72-1.53,8.59s-.79,5.75-1,8.64a86.41,86.41,0,0,0-.41,8.66c0,5.82-.11,11.65-.43,17.46q-.26,4.36-.6,8.71c-.27,2.9-.53,5.8-.9,8.69l.36-8.72c.13-2.9.23-5.81.3-8.71.19-5.81.26-11.61.23-17.43a93,93,0,0,1,2-17.39C477,299.23,478.39,293.6,479.73,287.94Z"/>
      <path class="cls-17"
            d="M459.39,298.21a16.41,16.41,0,0,1,2,2.62c.62.93,1.21,1.87,1.79,2.83,1.11,1.93,2.15,3.91,3.11,5.92A78.82,78.82,0,0,1,471,322.14a74.61,74.61,0,0,1,2.4,13.17q.28,3.35.29,6.69c-.05,2.23-.15,4.45-.42,6.66a91.36,91.36,0,0,0-3.4-26.21A102.65,102.65,0,0,0,465.5,310q-1.28-3.06-2.79-6c-.49-1-1-2-1.55-2.93-.27-.49-.55-1-.84-1.44A8.07,8.07,0,0,0,459.39,298.21Z"/>
      <rect class="cls-17" x="454.77" y="387.19" width="34.91" height="0.5"/>
      <path class="cls-26"
            d="M287.09,338.17a2.73,2.73,0,0,1-.14.9l-16.76,51.11a3.6,3.6,0,0,1-3.48,2.31h-111a2.13,2.13,0,0,1-1.87-2.31v-.08a1.67,1.67,0,0,1,1.47-1.82H186a4,4,0,0,0,3.77-2.73l15.85-48.28a3.59,3.59,0,0,1,3.48-2.31h74.34A3.43,3.43,0,0,1,287.09,338.17Z"/>
      <path class="cls-27"
            d="M283.47,334.47H209.13a4.11,4.11,0,0,0-4,2.65l-14.9,45.39v0l-.54,1.64-.4,1.23a3.48,3.48,0,0,1-3.3,2.39H155.28a2.19,2.19,0,0,0-2,2.4,2.62,2.62,0,0,0,2.37,2.81h111a4.08,4.08,0,0,0,4-2.66l2-6.17,11.14-34,.52-1.55,3.08-9.41a3.27,3.27,0,0,0,.17-1.06A3.93,3.93,0,0,0,283.47,334.47Zm3,4.45-3.05,9.29-.63,1.92-11.16,34L269.71,390a3.12,3.12,0,0,1-3,2h-111c-.75,0-1.37-.83-1.37-1.89,0-.72.44-1.32,1-1.32H186a4.47,4.47,0,0,0,1.89-.42l.31-.16a4.41,4.41,0,0,0,2.05-2.5v0l.5-1.51,15.33-46.74a3.12,3.12,0,0,1,3-2h74.34a2.94,2.94,0,0,1,3.12,2.71A2.21,2.21,0,0,1,286.47,338.92Z"/>
      <path class="cls-27"
            d="M193.39,388l-.16,0a.49.49,0,0,1-.31-.63l13.54-41a.5.5,0,0,1,.64-.32.49.49,0,0,1,.31.63l-13.54,41A.5.5,0,0,1,193.39,388Z"/>
      <ellipse class="cls-4" cx="240.32" cy="364.02" rx="5.72" ry="3.85"
               transform="translate(-187.39 449.6) rotate(-67.88)"/>
      <path class="cls-4"
            d="M190,51.34a14.78,14.78,0,0,1-4.41,10.58c-.3.29-.61.57-.92.84l0,0a12.79,12.79,0,0,1-3.45,1.9,16.61,16.61,0,0,1-5.9,1l-32,0a12.92,12.92,0,0,1-9-3.61,12.55,12.55,0,0,1-3.91-8.85,12.93,12.93,0,0,1,.07-1.65,11.42,11.42,0,0,1,4.38-7.6A5.19,5.19,0,0,1,138,42.93a5.4,5.4,0,0,1,3.4,1.22,17.32,17.32,0,0,1,2.46-8c2.89-4.59,7.15-7,13-7.52h.07l.83,0c5.6,0,10.37,2.69,13.79,7.76.63,0,1.24-.06,1.82-.06a22.78,22.78,0,0,1,3.57.27A14.88,14.88,0,0,1,190,51.34Z"/>
      <path class="cls-4"
            d="M480,165.63a10.05,10.05,0,0,1-3,7.2c-.2.2-.41.39-.62.57l0,0a8.83,8.83,0,0,1-2.35,1.3,11.29,11.29,0,0,1-4,.71H448.15A8.82,8.82,0,0,1,442,173a8.57,8.57,0,0,1-2.61-7.15,7.76,7.76,0,0,1,3-5.16,3.55,3.55,0,0,1,2.2-.77,3.64,3.64,0,0,1,2.32.83,11.76,11.76,0,0,1,1.67-5.45,10.77,10.77,0,0,1,8.84-5.11H458a11,11,0,0,1,9.38,5.28c.43,0,.84-.05,1.24-.05a15.85,15.85,0,0,1,2.43.19A10.13,10.13,0,0,1,480,165.63Z"/>
      <path class="cls-4"
            d="M335.2,81.29a11.28,11.28,0,0,1-3.36,8.07c-.23.22-.46.43-.7.63l0,0a9.73,9.73,0,0,1-2.63,1.45,12.61,12.61,0,0,1-4.5.8l-24.44,0a9.86,9.86,0,0,1-6.85-2.75,9.62,9.62,0,0,1-3-6.75,10.53,10.53,0,0,1,.06-1.26,8.73,8.73,0,0,1,3.34-5.8,4,4,0,0,1,2.47-.86,4.07,4.07,0,0,1,2.59.93A13.3,13.3,0,0,1,300,69.7c2.2-3.5,5.45-5.37,9.91-5.74H310l.64,0a12.37,12.37,0,0,1,10.51,5.92c.48,0,.94,0,1.39,0a17,17,0,0,1,2.72.21A11.35,11.35,0,0,1,335.2,81.29Z"/>
      <path class="cls-1"
            d="M237.16,208.21a3,3,0,0,0,.36-1.69v-2.1a2,2,0,0,1,.27-1.27,1.37,1.37,0,0,1,1-.29h.49v-1.7h-.56a4.3,4.3,0,0,0-2.52.52,2.86,2.86,0,0,0-.63,2.2v2.18a2.34,2.34,0,0,1-.4,1.56,1.82,1.82,0,0,1-1.4.45h-.32v1.73h.32a1.82,1.82,0,0,1,1.4.45,1.4,1.4,0,0,1,.29.6,3.45,3.45,0,0,1,.11,1V214a2.87,2.87,0,0,0,.63,2.21,4.15,4.15,0,0,0,2.5.52h.58V215H239a1.63,1.63,0,0,1-1.14-.29,1.92,1.92,0,0,1-.29-1.27v-2.13a3,3,0,0,0-.36-1.7,2.24,2.24,0,0,0-1.3-.71A2.2,2.2,0,0,0,237.16,208.21Z"/>
      <path class="cls-1"
            d="M247.4,211.8a1.28,1.28,0,0,1-1,.41,1.26,1.26,0,0,1-1.15-.71,3,3,0,0,1-.32-1,6.73,6.73,0,0,1-.08-1.06,4.14,4.14,0,0,1,.41-2,1.25,1.25,0,0,1,1.14-.72,1.36,1.36,0,0,1,1,.34,1.46,1.46,0,0,1,.43,1h2.32a3.42,3.42,0,0,0-1.08-2.39,3.77,3.77,0,0,0-2.58-.86,3.57,3.57,0,0,0-2.89,1.29,5.29,5.29,0,0,0-1.07,3.47,7,7,0,0,0,.1,1.24,4.82,4.82,0,0,0,.71,1.88l.22.3a3.39,3.39,0,0,0,2.79,1.29,3.8,3.8,0,0,0,2.68-.93,3.28,3.28,0,0,0,.81-1.16,4.5,4.5,0,0,0,.31-1.39h-2.31A1.74,1.74,0,0,1,247.4,211.8Z"/>
      <path class="cls-1" d="M256.43,212.07v-10H252v1.84h2.14v8.15h-2.72v1.82h7.67v-1.82Z"/>
      <path class="cls-1"
            d="M266.1,205.05v4.4a4.54,4.54,0,0,1-.35,2.13,1.23,1.23,0,0,1-1.17.62.93.93,0,0,1-.86-.39,3.8,3.8,0,0,1-.24-1.57c0-.13,0-.26,0-.4v-4.79h-2.35v5.59a5.23,5.23,0,0,0,.56,2.81,2.33,2.33,0,0,0,1.95.74,2.56,2.56,0,0,0,1.46-.39,3.07,3.07,0,0,0,1-1.26v1.35h2.36v-8.84Z"/>
      <path class="cls-1"
            d="M278.28,207a4.11,4.11,0,0,0-.6-1.05,3.12,3.12,0,0,0-.71-.65,4,4,0,0,0-2.22-.59,3.47,3.47,0,0,0-2.84,1.27,4.89,4.89,0,0,0-.41.6,5.21,5.21,0,0,0-.6,2.15,6.31,6.31,0,0,0,1,4.18,3.43,3.43,0,0,0,2.79,1.27,4,4,0,0,0,2.38-.65,4.18,4.18,0,0,0,1.41-2H276a1.34,1.34,0,0,1-.49.56,1.28,1.28,0,0,1-.71.2,1.38,1.38,0,0,1-1.12-.55,2.84,2.84,0,0,1-.53-1.54h5.52c0-.07,0-.14,0-.22v-.38A7.12,7.12,0,0,0,278.28,207Zm-5.07,1.46a.78.78,0,0,1,0-.22,2.06,2.06,0,0,1,.44-1.1,1.37,1.37,0,0,1,1.07-.5,1.34,1.34,0,0,1,1.08.48,1.38,1.38,0,0,1,.26.46,2.33,2.33,0,0,1,.18.88Z"/>
      <path class="cls-1"
            d="M287.34,208.06h-.15a1.83,1.83,0,0,1-1.41-.45,2.34,2.34,0,0,1-.4-1.56v-2.18a5.92,5.92,0,0,0,0-.76,2.1,2.1,0,0,0-.59-1.43,4.17,4.17,0,0,0-2.51-.53h-.58v1.7H282a1.66,1.66,0,0,1,1.15.29,1.94,1.94,0,0,1,.29,1.27v2.1a3,3,0,0,0,.36,1.69,2.2,2.2,0,0,0,1.31.7,2.27,2.27,0,0,0-1.31.71,3,3,0,0,0-.36,1.7v2.13a1.93,1.93,0,0,1-.28,1.26,1.34,1.34,0,0,1-1,.3h-.49v1.7h.58a4.17,4.17,0,0,0,2.51-.53,2.86,2.86,0,0,0,.63-2.2v-2.19a2.37,2.37,0,0,1,.4-1.57,1.83,1.83,0,0,1,1.41-.45h.31v-1.73Z"/>
      <path class="cls-1"
            d="M297.68,80.34V79a1.26,1.26,0,0,1,.18-.81.83.83,0,0,1,.64-.19h.31V76.89h-.36a2.64,2.64,0,0,0-1.61.34,1.81,1.81,0,0,0-.41,1.41V80a1.55,1.55,0,0,1-.26,1,1.18,1.18,0,0,1-.9.29h-.2v1.11h.2a1.15,1.15,0,0,1,.9.29,1.53,1.53,0,0,1,.26,1v1.41a1.85,1.85,0,0,0,.4,1.42,2.73,2.73,0,0,0,1.61.33h.37V85.8h-.21a1,1,0,0,1-.73-.19,1.16,1.16,0,0,1-.19-.81V83.43a2,2,0,0,0-.23-1.1,1.46,1.46,0,0,0-.84-.46,1.34,1.34,0,0,0,.84-.45A1.9,1.9,0,0,0,297.68,80.34Z"/>
      <path class="cls-1"
            d="M304,83.73a.82.82,0,0,1-1.35-.19,2.72,2.72,0,0,1-.26-1.32,2.76,2.76,0,0,1,.26-1.31.83.83,0,0,1,.74-.46.89.89,0,0,1,.61.22.94.94,0,0,1,.28.61h1.49a2.18,2.18,0,0,0-.69-1.53,2.42,2.42,0,0,0-1.66-.56,2.3,2.3,0,0,0-1.86.83,4,4,0,0,0,0,4.44,2.11,2.11,0,0,0,1.49.81h.3a2.48,2.48,0,0,0,1.72-.59,1.66,1.66,0,0,0,.32-.39,2.57,2.57,0,0,0,.4-1.25h-1.48A1.09,1.09,0,0,1,304,83.73Z"/>
      <path class="cls-1" d="M309.84,83.91V77.48H307v1.19h1.38v5.24H306.6v1.17h4.94V83.91Z"/>
      <path class="cls-1"
            d="M316.07,79.39v2.83a3,3,0,0,1-.23,1.37.79.79,0,0,1-.76.4.6.6,0,0,1-.55-.25,3.17,3.17,0,0,1-.15-1.27V79.39h-1.52v3.46a3.56,3.56,0,0,0,.36,2,1.51,1.51,0,0,0,1.26.47,1.65,1.65,0,0,0,.94-.25,2.11,2.11,0,0,0,.65-.81v.87h1.51V79.39Z"/>
      <path class="cls-1"
            d="M323.51,80a2.53,2.53,0,0,0-3.71,0,3.36,3.36,0,0,0-.68,2.22,3.43,3.43,0,0,0,.67,2.23,2.2,2.2,0,0,0,1.8.82,2.64,2.64,0,0,0,1.53-.41,2.71,2.71,0,0,0,.91-1.32h-1.59a.85.85,0,0,1-.31.36.82.82,0,0,1-.46.13.9.9,0,0,1-.73-.35,1.9,1.9,0,0,1-.33-1h3.54a.66.66,0,0,0,0-.15v-.24A3.58,3.58,0,0,0,323.51,80Zm-2.87,1.62a1.43,1.43,0,0,1,.3-.85.9.9,0,0,1,1.38,0,1.39,1.39,0,0,1,.29.87Z"/>
      <path class="cls-1"
            d="M329.73,81.33h-.1a1.17,1.17,0,0,1-.9-.29,1.49,1.49,0,0,1-.27-1v-1.4a1.84,1.84,0,0,0-.4-1.41,2.66,2.66,0,0,0-1.62-.34h-.37V78h.21a1,1,0,0,1,.74.19,1.19,1.19,0,0,1,.19.81v1.36a1.9,1.9,0,0,0,.23,1.08,1.4,1.4,0,0,0,.84.45,1.4,1.4,0,0,0-.83.46,1.88,1.88,0,0,0-.24,1.1V84.8a1.26,1.26,0,0,1-.18.81.84.84,0,0,1-.64.19h-.32v1.09h.37a2.66,2.66,0,0,0,1.62-.34,1.84,1.84,0,0,0,.4-1.41V83.73a1.47,1.47,0,0,1,.27-1,1.13,1.13,0,0,1,.9-.29h.2V81.33Z"/>
      <path class="cls-1"
            d="M117.69,129.83a2.59,2.59,0,0,0,.32-1.49v-1.86a1.77,1.77,0,0,1,.24-1.11,1.16,1.16,0,0,1,.88-.26h.43v-1.5h-.49a3.69,3.69,0,0,0-2.22.46,2.52,2.52,0,0,0-.56,1.94v1.93a2.08,2.08,0,0,1-.36,1.38,1.63,1.63,0,0,1-1.24.39h-.27v1.53h.27a1.63,1.63,0,0,1,1.24.4,2.09,2.09,0,0,1,.36,1.39v1.94a2.58,2.58,0,0,0,.55,1.95,3.75,3.75,0,0,0,2.21.46h.51v-1.5h-.29a1.45,1.45,0,0,1-1-.26,1.67,1.67,0,0,1-.26-1.12v-1.88a2.66,2.66,0,0,0-.32-1.51,2,2,0,0,0-1.15-.63A1.88,1.88,0,0,0,117.69,129.83Z"/>
      <path class="cls-1"
            d="M126.74,133a1.14,1.14,0,0,1-1.85-.26,4.86,4.86,0,0,1,0-3.62,1.12,1.12,0,0,1,1-.63,1.2,1.2,0,0,1,.84.3,1.34,1.34,0,0,1,.38.84h2.05a3,3,0,0,0-1-2.11,3.28,3.28,0,0,0-2.27-.76,3.14,3.14,0,0,0-2.55,1.14,4.59,4.59,0,0,0-1,3.06,4.66,4.66,0,0,0,.91,3,3,3,0,0,0,2.46,1.14,3.4,3.4,0,0,0,2.37-.82,3.27,3.27,0,0,0,1-2.25h-2A1.47,1.47,0,0,1,126.74,133Z"/>
      <path class="cls-1" d="M134.72,133.25v-8.83h-3.94v1.63h1.89v7.2h-2.4v1.61h6.78v-1.61Z"/>
      <path class="cls-1"
            d="M143.27,127.05v3.88a4,4,0,0,1-.31,1.88,1.08,1.08,0,0,1-1,.55.83.83,0,0,1-.76-.34,4.26,4.26,0,0,1-.21-1.74v-4.23h-2.08v4.74a4.88,4.88,0,0,0,.49,2.68,2.07,2.07,0,0,0,1.73.65,2.25,2.25,0,0,0,1.29-.34,2.78,2.78,0,0,0,.89-1.11v1.19h2.08v-7.81Z"/>
      <path class="cls-1"
            d="M153.5,127.87a3.15,3.15,0,0,0-2.59-1.1,3.07,3.07,0,0,0-2.51,1.12,5.52,5.52,0,0,0,0,6.12,3,3,0,0,0,2.47,1.13,3.53,3.53,0,0,0,2.1-.57,3.68,3.68,0,0,0,1.25-1.81H152a1.12,1.12,0,0,1-1.06.67,1.23,1.23,0,0,1-1-.48,2.55,2.55,0,0,1-.46-1.36h4.87a1.27,1.27,0,0,0,0-.2,2.83,2.83,0,0,0,0-.33A4.93,4.93,0,0,0,153.5,127.87Zm-3.95,2.22a2,2,0,0,1,.42-1.17,1.18,1.18,0,0,1,.94-.45,1.21,1.21,0,0,1,1,.43,1.88,1.88,0,0,1,.39,1.19Z"/>
      <path class="cls-1"
            d="M162,129.71h-.14a1.64,1.64,0,0,1-1.24-.39,2.14,2.14,0,0,1-.35-1.38V126a2.52,2.52,0,0,0-.56-1.94,3.69,3.69,0,0,0-2.22-.46H157v1.5h.29a1.41,1.41,0,0,1,1,.26,1.59,1.59,0,0,1,.27,1.11v1.86a2.6,2.6,0,0,0,.31,1.49,1.91,1.91,0,0,0,1.16.62,2,2,0,0,0-1.15.63,2.58,2.58,0,0,0-.32,1.51v1.88a1.76,1.76,0,0,1-.25,1.11,1.18,1.18,0,0,1-.89.27H157v1.5h.51a3.67,3.67,0,0,0,2.22-.47,2.52,2.52,0,0,0,.56-1.94V133a2.15,2.15,0,0,1,.35-1.39,1.65,1.65,0,0,1,1.24-.4h.28V129.7Z"/>
      <ellipse class="cls-4" cx="211.72" cy="281.71" rx="4.72" ry="3.73"
               transform="translate(-140.57 290.69) rotate(-54.53)"/>
      <g class="cls-28">
        <g class="cls-29">
          <path
              d="M301.7,259a.31.31,0,0,1-.18,0,.37.37,0,0,1-.14-.51c.14-.24,3.47-5.78,15.5-3.41a.38.38,0,0,1-.15.74c-11.45-2.26-14.67,3-14.7,3A.38.38,0,0,1,301.7,259Z"/>
        </g>
        <g class="cls-29">
          <path
              d="M319.12,255a.36.36,0,0,1-.3-.15c-4.54-6.2-8.92-5.25-9-5.24a.37.37,0,0,1-.45-.27.38.38,0,0,1,.27-.46c.2-.05,4.89-1.11,9.75,5.52a.38.38,0,0,1-.08.53A.36.36,0,0,1,319.12,255Z"/>
        </g>
        <g class="cls-29">
          <path
              d="M348.07,209.92a.37.37,0,0,1-.37-.29s-.22-1-.93-.95a3.21,3.21,0,0,0-1.71,1,.39.39,0,0,1-.53,0,.37.37,0,0,1,0-.53,3.93,3.93,0,0,1,2.21-1.25,1.76,1.76,0,0,1,1.72,1.54.38.38,0,0,1-.28.45Z"/>
        </g>
      </g>
      <g class="cls-12">
        <path class="cls-9"
              d="M153.4,266h0a.39.39,0,0,1-.38-.38c0-1.64.14-7.06,1.28-7.77a2,2,0,0,1,2.54.6.38.38,0,1,1-.58.48s-.8-.92-1.56-.45c-.53.33-.91,4-.93,7.14A.38.38,0,0,1,153.4,266Z"/>
      </g>
      <g class="cls-21">
        <path
            d="M113.71,372.56a.39.39,0,0,1-.33-.21c-2-4,.1-10.06,1.69-13.58a32,32,0,0,0-6.55,12.42.38.38,0,1,1-.73-.18c1.16-4.89,4.1-10,8.74-15.11a.38.38,0,0,1,.5,0,.36.36,0,0,1,.1.49c0,.1-5.83,10.22-3.08,15.67a.38.38,0,0,1-.17.51A.47.47,0,0,1,113.71,372.56Z"/>
      </g>
      <g class="cls-21">
        <path
            d="M109.76,383.85a.38.38,0,0,1-.3-.15,13.16,13.16,0,0,1-2.12-6.09.39.39,0,0,1,.33-.42.38.38,0,0,1,.42.33,12.51,12.51,0,0,0,2,5.73.37.37,0,0,1-.07.52A.4.4,0,0,1,109.76,383.85Z"/>
      </g>
      <g class="cls-21">
        <path
            d="M128.21,313.64a.38.38,0,0,1-.38-.36,20.2,20.2,0,0,0-3.7-9.92c-3.28-4.29-5.73-4.57-5.75-4.57a.38.38,0,0,1,.06-.75c.11,0,2.77.26,6.29,4.86a20.66,20.66,0,0,1,3.85,10.34.37.37,0,0,1-.35.39Z"/>
      </g>
    </g>
  </g>
</svg>
