<svg id="Layer_4" data-name="Layer 4" xmlns="http://www.w3.org/2000/svg" viewBox="0 0 78.46 30">
  <defs>
    <style>.cls-1{fill:#003;}.cls-2{fill:#1da1f2;}</style>
  </defs>
  <path class="cls-1" d="M36.9,20.26H32.61l-.68,1.58H30.3l4.2-9.68H35l4.2,9.68H37.57ZM34.76,15l-1.6,3.94h3.19Z"/>
  <path class="cls-1"
        d="M39.68,12.32h3.48a2.93,2.93,0,1,1,0,5.84H41.21v3.68H39.68Zm3.45,4.49a1.57,1.57,0,1,0,0-3.13H41.21v3.13Z"/>
  <path class="cls-1" d="M47.57,12.32H49.1v9.52H47.57Z"/>
  <path class="cls-1"
        d="M58.66,21.84H57.14V17.63A1.5,1.5,0,0,0,55.6,16,1.56,1.56,0,0,0,54,17.63v4.21H52.47V12.32H54v3.15A2.59,2.59,0,0,1,56,14.6a2.56,2.56,0,0,1,2.63,2.81Z"/>
  <path class="cls-1" d="M59.76,14.76h1.51V19a1.58,1.58,0,1,0,3.16,0V14.76h1.51v4.11a3.09,3.09,0,1,1-6.18,0Z"/>
  <path class="cls-1"
        d="M73.25,21.84H71.74V17.62A1.51,1.51,0,0,0,70.19,16a1.57,1.57,0,0,0-1.61,1.65v4.22H67.06V14.76h1.42v.69a2.79,2.79,0,0,1,2.12-.85,2.55,2.55,0,0,1,2.65,2.81Z"/>
  <path class="cls-1"
        d="M78.23,21.84A5.7,5.7,0,0,1,77,22c-1.63,0-2.61-.8-2.61-2.46V12.32h1.53v2.44H78v1.31H75.89v3.34c0,.9.48,1.22,1.4,1.22.22,0,.52,0,.94-.07Z"/>
  <path class="cls-1"
        d="M33.79,10.26a1.46,1.46,0,0,1-1.66-1.6l0-4.82H33V5.51h1.38v.76H33V8.57c0,.62.31.89,1,.89a4.39,4.39,0,0,0,.55,0v.75A4,4,0,0,1,33.79,10.26Z"/>
  <path class="cls-1"
        d="M38.42,10.16l0-2.78a1.07,1.07,0,0,0-1.08-1.17,1.09,1.09,0,0,0-1.11,1.17v2.78h-.87l0-6.31h.87V6.1L36.31,6a1.58,1.58,0,0,1,1.29-.56,1.65,1.65,0,0,1,1.67,1.83l0,2.92Z"/>
  <path class="cls-1"
        d="M42.38,10.27a2.39,2.39,0,0,1-2.44-2.43,2.36,2.36,0,0,1,.66-1.72,2.22,2.22,0,0,1,1.62-.71h0a2.08,2.08,0,0,1,2.1,2.13,3.26,3.26,0,0,1-.06.58H40.82v.07a1.52,1.52,0,0,0,1.58,1.31A2,2,0,0,0,43.75,9l.4.6A2.45,2.45,0,0,1,42.38,10.27Zm-.15-4.12a1.43,1.43,0,0,0-1.39,1.21v.08h2.66V7.38A1.21,1.21,0,0,0,42.23,6.15Z"/>
  <path class="cls-2"
        d="M1.63,26a1.65,1.65,0,0,1-1.22-.54,1.63,1.63,0,0,1,.13-2.3l3.4-3L3.78,20a12.38,12.38,0,0,1-2.44-7.42A12.53,12.53,0,1,1,6.43,22.61l-.19-.14-3.53,3.1A1.67,1.67,0,0,1,1.63,26ZM13.87,2.3A10.23,10.23,0,1,0,24.1,12.53,10.24,10.24,0,0,0,13.87,2.3Z"/>
  <path class="cls-1"
        d="M47.75,29.07a.23.23,0,0,1-.2-.12l-.91-1.85a.11.11,0,0,0-.1-.06.09.09,0,0,0-.09.06L45.53,29a.24.24,0,0,1-.2.12.23.23,0,0,1-.2-.13L43.81,26a.43.43,0,0,1,.4-.61.41.41,0,0,1,.39.26l.78,1.87,1-2.08a.22.22,0,0,1,.2-.13.24.24,0,0,1,.2.12l1,2.05.76-1.83a.44.44,0,0,1,.4-.26.4.4,0,0,1,.36.2.43.43,0,0,1,0,.41l-1.33,2.91A.21.21,0,0,1,47.75,29.07Z"/>
  <path class="cls-1"
        d="M51.42,29.07a2,2,0,0,1-1.4-.58,1.86,1.86,0,0,1,1.31-3.15h0A1.61,1.61,0,0,1,53.05,27a2.14,2.14,0,0,1-.06.5H50.42v.05a1,1,0,0,0,1.06.76,1.65,1.65,0,0,0,.71-.17.33.33,0,0,1,.17,0,.37.37,0,0,1,.32.17.4.4,0,0,1,0,.28.4.4,0,0,1-.17.23,2.14,2.14,0,0,1-1.1.3Zm-.08-3a.93.93,0,0,0-.91.77v.05h1.74v-.05A.78.78,0,0,0,51.34,26.06Z"/>
  <path class="cls-1"
        d="M55.66,29.07a1.39,1.39,0,0,1-1.14-.52l-.07-.1v.12A.41.41,0,0,1,54,29h0a.41.41,0,0,1-.41-.41V24a.46.46,0,1,1,.91,0v1.83l.07-.07a1.37,1.37,0,0,1,1.06-.42,1.87,1.87,0,0,1,0,3.73Zm-.18-2.91a1,1,0,0,0,0,2.08,1,1,0,0,0,0-2.08Z"/>
  <path class="cls-1"
        d="M60.81,29a.45.45,0,0,1-.45-.45V26.9a.73.73,0,1,0-1.45,0v1.63a.46.46,0,0,1-.91,0V24a.46.46,0,1,1,.91,0v1.78l.07-.06a1.33,1.33,0,0,1,1-.38,1.28,1.28,0,0,1,1.31,1.42v1.77A.45.45,0,0,1,60.81,29Z"/>
  <path class="cls-1"
        d="M72.69,28.31a.4.4,0,0,1,0,.43.42.42,0,0,1-.71.06l-1.25-1.72v1.44a.46.46,0,1,1-.91,0V24a.46.46,0,1,1,.91,0v2.83l1.28-1.5a.39.39,0,0,1,.32-.15.4.4,0,0,1,.37.24.42.42,0,0,1-.06.43l-1,1.13Z"/>
  <path class="cls-1"
        d="M73.85,29a.46.46,0,0,1-.46-.46V25.63a.47.47,0,0,1,.46-.46.46.46,0,0,1,.45.46v2.89A.45.45,0,0,1,73.85,29Zm0-4.51a.48.48,0,0,1-.48-.47.46.46,0,0,1,.48-.46h0a.48.48,0,0,1,.46.46.46.46,0,0,1-.13.32A.48.48,0,0,1,73.84,24.47Z"/>
  <path class="cls-1"
        d="M76.83,29.07a2,2,0,0,1-1.4-.58,1.86,1.86,0,0,1,1.31-3.15h0A1.61,1.61,0,0,1,78.46,27a2.14,2.14,0,0,1-.06.5H75.83v.05a1,1,0,0,0,1.06.76,1.65,1.65,0,0,0,.71-.17.33.33,0,0,1,.17,0,.34.34,0,0,1,.31.17.36.36,0,0,1,0,.28.4.4,0,0,1-.17.23,2.14,2.14,0,0,1-1.1.3Zm-.09-3a.93.93,0,0,0-.9.77v.05h1.74v-.05A.79.79,0,0,0,76.74,26.06Z"/>
  <path class="cls-1"
        d="M63.71,29a1.81,1.81,0,0,1-1-.3l-.06,0-.06,0,0,0h0l-.06-.05-.06-.06a1.72,1.72,0,0,1-.43-.66v0a2.05,2.05,0,0,1-.11-.64,1.86,1.86,0,0,1,3.59-.71l0,.06L66,26a1.87,1.87,0,0,1,3.1.2l0,.06,0,.06a1.19,1.19,0,0,1,.08.2l0,.09c0,.08,0,.16,0,.23a.25.25,0,0,1,0,.08,1.36,1.36,0,0,1,0,.21h0v.07a.31.31,0,0,0,0,.09,1.92,1.92,0,0,1-.29.84.43.43,0,0,0,0,.07l0,.05,0,.06a1.78,1.78,0,0,1-1,.62l-.09,0-.07,0h-.3a1.86,1.86,0,0,1-1-.28l0,0a.43.43,0,0,1-.18-.54.43.43,0,0,1,.4-.27h0l.14,0,.12.07a1,1,0,0,0,.47.15h0a1,1,0,0,0,.87-.51l0-.05a1.06,1.06,0,0,0,.09-.42,1.24,1.24,0,0,0,0-.27,1,1,0,0,0-1-.73,1,1,0,0,0-.79.4l-.86,1-.58.7A1.82,1.82,0,0,1,63.71,29Zm0-2.86a1,1,0,1,0,1,1A1,1,0,0,0,63.71,26.16Z"/>
  <path class="cls-1"
        d="M37.56,28.89a1.21,1.21,0,0,1-1-.46l-.13-.18v.57H36V24.33h.5v2.1l.13-.15a1.22,1.22,0,0,1,1-.42,1.52,1.52,0,0,1,0,3Zm-.11-2.58a1.07,1.07,0,0,0,0,2.13,1.07,1.07,0,0,0,0-2.13Z"/>
  <path class="cls-1"
        d="M39.64,30a2,2,0,0,1-.43-.05v-.41l.29,0a.72.72,0,0,0,.73-.49l.13-.31-1.18-2.83h.54l.92,2.33,1-2.33h.53l-1.43,3.28A1.09,1.09,0,0,1,39.64,30Z"/>
  <path class="cls-2"
        d="M9.5,16.36h0a.09.09,0,0,1-.09.09H8.77a1.24,1.24,0,0,1-1.31-1.21V13.6c0-.41-.69-.84-1-.91a.08.08,0,0,1-.06-.09.09.09,0,0,1,.06-.09c.28-.06,1-.49,1-.91V10a1.23,1.23,0,0,1,1.31-1.2h.64a.09.09,0,0,1,.09.09.09.09,0,0,1-.06.09,1.08,1.08,0,0,0-.76,1.16v1.62a1.18,1.18,0,0,1-.35.81.1.1,0,0,0,0,.14,1.21,1.21,0,0,1,.35.82V15.1a1.25,1.25,0,0,0,.77,1.16A.09.09,0,0,1,9.5,16.36Z"/>
  <path class="cls-2"
        d="M12.5,17.17h0a.09.09,0,0,1-.09.08h-.65a1.23,1.23,0,0,1-1.3-1.2V13.6c0-.41-.69-.84-1-.91a.09.09,0,0,1-.07-.09.1.1,0,0,1,.07-.09c.28-.06,1-.49,1-.91V9.16A1.23,1.23,0,0,1,11.76,8h.64a.08.08,0,0,1,.09.08.1.1,0,0,1-.06.1,1,1,0,0,0-.75,1.15v2.43h0a1.22,1.22,0,0,1-.34.81.08.08,0,0,0,0,.14,1.25,1.25,0,0,1,.34.82h0v2.42a1.25,1.25,0,0,0,.76,1.16A.1.1,0,0,1,12.5,17.17Z"/>
  <path class="cls-2"
        d="M15.49,16.76h0a.08.08,0,0,1-.09.08h-.65a1.23,1.23,0,0,1-1.3-1.2V13.6c0-.41-.69-.84-1-.91a.08.08,0,0,1-.06-.09.09.09,0,0,1,.06-.09c.28-.06,1-.49,1-.91v-2a1.23,1.23,0,0,1,1.3-1.2h.65a.11.11,0,0,1,.09.08.09.09,0,0,1-.06.1,1.07,1.07,0,0,0-.76,1.16v2h0a1.18,1.18,0,0,1-.35.81.1.1,0,0,0,0,.14,1.21,1.21,0,0,1,.35.82h0v2a1.25,1.25,0,0,0,.77,1.16A.07.07,0,0,1,15.49,16.76Z"/>
  <path class="cls-2"
        d="M18.41,15.15h0a.09.09,0,0,1-.08.09h-.62A1.21,1.21,0,0,1,16.47,14V13.6c0-.41-.66-.84-.92-.91a.09.09,0,0,1-.07-.09.1.1,0,0,1,.07-.09c.26-.06.92-.49.92-.91v-.42A1.2,1.2,0,0,1,17.71,10h.61a.09.09,0,0,1,.09.09.09.09,0,0,1-.06.09,1.08,1.08,0,0,0-.72,1.16v.41a1.27,1.27,0,0,1-.33.81.1.1,0,0,0,0,.14,1.31,1.31,0,0,1,.33.82v.4a1.25,1.25,0,0,0,.73,1.16A.09.09,0,0,1,18.41,15.15Z"/>
  <path class="cls-2"
        d="M21.48,16h0a.09.09,0,0,1-.09.08h-.65a1.23,1.23,0,0,1-1.3-1.2V13.64c0-.41-.69-.84-1-.9a.09.09,0,0,1-.06-.09c0-.05,0-.09.06-.09.28-.07,1-.5,1-.91V10.41a1.23,1.23,0,0,1,1.3-1.2h.65a.09.09,0,0,1,.09.08.11.11,0,0,1-.06.1,1.06,1.06,0,0,0-.76,1.15v1.22a1.23,1.23,0,0,1-.35.81.11.11,0,0,0,0,.15,1.23,1.23,0,0,1,.35.81v1.21a1.26,1.26,0,0,0,.77,1.16A.09.09,0,0,1,21.48,16Z"/>
</svg>
